<?xml version="1.0" encoding="UTF-8" standalone="no"?>
<svg
   id="ng-sunflower"
   viewBox="0 0 960 960"
   height="960"
   width="960"
   xml:space="preserve"
   version="1.1"
   sodipodi:docname="ng-sunflower-development.svg"
   inkscape:version="1.1.2 (b8e25be8, 2022-02-05)"
   xmlns:inkscape="http://www.inkscape.org/namespaces/inkscape"
   xmlns:sodipodi="http://sodipodi.sourceforge.net/DTD/sodipodi-0.dtd"
   xmlns:xlink="http://www.w3.org/1999/xlink"
   xmlns="http://www.w3.org/2000/svg"
   xmlns:svg="http://www.w3.org/2000/svg"
   xmlns:rdf="http://www.w3.org/1999/02/22-rdf-syntax-ns#"
   xmlns:cc="http://creativecommons.org/ns#"
   xmlns:dc="http://purl.org/dc/elements/1.1/"><sodipodi:namedview
   pagecolor="#ffffff"
   bordercolor="#666666"
   borderopacity="1"
   objecttolerance="10"
   gridtolerance="10"
   guidetolerance="10"
   inkscape:pageopacity="0"
   inkscape:pageshadow="2"
   inkscape:window-width="1440"
   inkscape:window-height="847"
   id="namedview94"
   showgrid="true"
   inkscape:snap-grids="false"
   inkscape:zoom="0.73"
   inkscape:cx="474.65753"
   inkscape:cy="476.0274"
   inkscape:window-x="0"
   inkscape:window-y="25"
   inkscape:window-maximized="1"
   inkscape:current-layer="ng-sunflower"
   inkscape:pagecheckerboard="1"><inkscape:grid
     type="xygrid"
     id="grid4653" /></sodipodi:namedview>
   <metadata
   id="metadata8">
     <rdf:RDF>
       <cc:Work
   rdf:about="">
         <dc:format>image/svg+xml</dc:format>
         <dc:type
   rdf:resource="http://purl.org/dc/dcmitype/StillImage" />
       </cc:Work>
     </rdf:RDF>
   </metadata>
   <defs
   id="ng-sunflower-defs"><linearGradient
     inkscape:collect="always"
     id="linearGradient2920-1"><stop
       style="stop-color:#006e3a;stop-opacity:0;"
       offset="0"
       id="stop2926" /><stop
       style="stop-color:#006e3a;stop-opacity:1;"
       offset="1"
       id="stop2924" /></linearGradient><linearGradient
     id="linearGradient6914"
     inkscape:swatch="solid"><stop
       style="stop-color:#006e3a;stop-opacity:1;"
       offset="0"
       id="stop6912" /></linearGradient><radialGradient
     inkscape:collect="always"
     xlink:href="#linearGradient2920-1"
     id="radialGradient2922"
     cx="499.15356"
     cy="450.39905"
     fx="499.15356"
     fy="450.39905"
     r="330.83435"
     gradientUnits="userSpaceOnUse"
     gradientTransform="matrix(0.84265602,0.00414063,-0.00422196,0.85920817,80.440379,61.345697)" /><radialGradient
     inkscape:collect="always"
     xlink:href="#linearGradient2920-1"
     id="radialGradient3438"
     cx="499.15332"
     cy="448.96094"
     fx="499.15332"
     fy="448.96094"
     r="330.83496"
     gradientTransform="matrix(1,0,0,0.99565199,0,1.9520884)"
     gradientUnits="userSpaceOnUse" /></defs>
   
 <g
   style="display:none"
   inkscape:label="full"
   id="g4651"
   inkscape:groupmode="layer"><g
     id="g4649"
     transform="matrix(1.3333333,0,0,-1.3333333,20.8948,968.12575)">
     <g
   id="g4647">
       <g
   id="g4625"
   transform="translate(154.4341,440.4062)">
         <path
   inkscape:connector-curvature="0"
   d="m 0,0 c -6.199,-20.402 -9.541,-42.078 -9.541,-64.548 0,-104.014 71.52,-191.055 167.314,-213.128 L 73.93,-130.11 Z"
   style="fill:#0cb14b;fill-opacity:1;fill-rule:nonzero;stroke:none"
   id="path4623" />
       </g>
       <g
   id="g4629"
   transform="translate(499.7754,541.9297)">
         <path
   inkscape:connector-curvature="0"
   d="m 0,0 c -37.599,32.709 -86.425,52.475 -139.802,52.475 -53.376,0 -102.204,-19.766 -139.8,-52.475 h 139.803 z"
   style="fill:#006e3a;fill-opacity:1;fill-rule:nonzero;stroke:none"
   id="path4627" />
       </g>
       <g
   id="g4633"
   transform="translate(491.5879,310.2959)">
         <path
   inkscape:connector-curvature="0"
   d="M 0,0 -83.842,-147.565 C 11.95,-125.489 83.47,-38.452 83.47,65.562 c 0,22.47 -3.342,44.146 -9.541,64.548 z"
   style="fill:#8cc63f;fill-opacity:1;fill-rule:nonzero;stroke:none"
   id="path4631" />
       </g>
       <g
   id="g4637"
   transform="translate(589.7627,379.1338)">
         <path
   inkscape:connector-curvature="0"
   d="m 0,0 c -0.13,-45.398 -12.8,-89.9 -37.312,-128.173 -23.553,-36.776 -57.445,-66.346 -96.96,-84.877 -82.052,-38.48 -181.89,-22.496 -248.708,38.348 -67.703,61.649 -93.071,159.71 -65.255,246.747 27.221,85.18 103.074,148.63 191.9,159.415 89.679,10.89 178.524,-35.087 224.037,-112.549 C -11.195,82.994 -0.119,41.626 0,0 c 0.021,-7.679 11.972,-8.86 11.949,-1.132 -0.131,45.691 -12.29,90.658 -36.117,129.724 -22.87,37.496 -55.749,68.572 -94.645,89.003 -40.399,21.22 -85.983,30.133 -131.419,26.506 -44.519,-3.553 -87.351,-20.476 -123.094,-47.067 -73.608,-54.761 -109.569,-148.966 -94.802,-238.995 14.515,-88.494 78.827,-164.228 164.012,-192.335 86.702,-28.606 184.094,-3.433 247.198,62.106 44.025,45.724 68.687,107.651 68.867,171.058 C 11.972,6.553 0.022,7.73 0,0"
   style="fill:#231f20;fill-opacity:1;fill-rule:nonzero;stroke:none"
   id="path4635" />
       </g>
       <g
   id="g4645"
   transform="translate(359.9746,304.7998)">
         <path
   inkscape:connector-curvature="0"
   d="m 0,0 c -45.082,0 -81.628,37.054 -81.628,82.77 0,45.708 36.546,82.766 81.628,82.766 45.084,0 81.63,-37.058 81.63,-82.766 C 81.63,37.054 45.084,0 0,0 m 136.801,46.701 c 0,0 -17.35,12.837 -54.211,25.096 20.874,1.101 41.458,4.455 58.884,11.541 0,0 -20.079,7.908 -58.856,10.209 19.877,6.466 38.89,15.034 53.888,26.388 0,0 -21.443,2.441 -59.494,-5.373 17.526,11.391 33.675,24.587 45.222,39.436 0,0 -21.343,-3.191 -56.076,-20.588 13.982,15.539 26.164,32.466 33.476,49.798 0,0 -19.79,-8.607 -48.837,-34.401 9.482,18.628 16.869,38.131 19.446,56.765 0,0 -16.889,-13.435 -38.269,-45.868 4.339,20.447 6.425,41.198 4.092,59.863 0,0 -12.836,-17.349 -25.094,-54.212 -1.102,20.874 -4.456,41.459 -11.541,58.885 0,0 -7.909,-20.08 -10.209,-58.858 -6.466,19.878 -15.034,38.892 -26.388,53.89 0,0 -2.441,-21.441 5.373,-59.494 -11.391,17.527 -24.588,33.676 -39.436,45.224 0,0 3.191,-21.344 20.588,-56.077 -15.539,13.982 -32.466,26.165 -49.797,33.477 0,0 8.606,-19.791 34.399,-48.838 -18.628,9.484 -38.131,16.871 -56.765,19.447 0,0 13.436,-16.888 45.868,-38.269 -20.447,4.339 -41.197,6.426 -59.863,4.092 0,0 17.349,-12.835 54.21,-25.095 -20.874,-1.101 -41.458,-4.455 -58.884,-11.541 0,0 20.081,-7.908 58.86,-10.209 -19.879,-6.467 -38.893,-15.034 -53.892,-26.389 0,0 21.442,-2.442 59.492,5.373 -17.525,-11.391 -33.673,-24.587 -45.22,-39.436 0,0 21.343,3.192 56.075,20.588 -13.981,-15.539 -26.163,-32.466 -33.475,-49.797 0,0 19.791,8.607 48.838,34.4 -9.484,-18.628 -16.871,-38.132 -19.447,-56.766 0,0 16.888,13.435 38.269,45.868 -4.339,-20.447 -6.426,-41.198 -4.092,-59.863 0,0 12.836,17.349 25.094,54.211 1.101,-20.874 4.456,-41.457 11.541,-58.883 0,0 7.909,20.079 10.208,58.857 6.467,-19.878 15.034,-38.891 26.388,-53.889 0,0 2.441,21.442 -5.372,59.494 11.391,-17.527 24.588,-33.676 39.436,-45.224 0,0 -3.191,21.345 -20.588,56.078 15.539,-13.981 32.465,-26.165 49.798,-33.476 0,0 -8.607,19.79 -34.4,48.836 18.628,-9.484 38.131,-16.87 56.764,-19.448 0,0 -13.436,16.89 -45.869,38.272 20.448,-4.34 41.2,-6.428 59.866,-4.094"
   style="fill:#fff200;fill-opacity:1;fill-rule:nonzero;stroke:none"
   id="path4639" />
         <path
   inkscape:connector-curvature="0"
   d="m 0,0 c -45.082,0 -81.628,37.054 -81.628,82.77 0,45.708 36.546,82.766 81.628,82.766 45.084,0 81.63,-37.058 81.63,-82.766 C 81.63,37.054 45.084,0 0,0 Z m 136.801,46.701 c 0,0 -17.35,12.837 -54.211,25.096 20.874,1.101 41.458,4.455 58.884,11.541 0,0 -20.079,7.908 -58.856,10.209 19.877,6.466 38.89,15.034 53.888,26.388 0,0 -21.443,2.441 -59.494,-5.373 17.526,11.391 33.675,24.587 45.222,39.436 0,0 -21.343,-3.191 -56.076,-20.588 13.982,15.539 26.164,32.466 33.476,49.798 0,0 -19.79,-8.607 -48.837,-34.401 9.482,18.628 16.869,38.131 19.446,56.765 0,0 -16.889,-13.435 -38.269,-45.868 4.339,20.447 6.425,41.198 4.092,59.863 0,0 -12.836,-17.349 -25.094,-54.212 -1.102,20.874 -4.456,41.459 -11.541,58.885 0,0 -7.909,-20.08 -10.209,-58.858 -6.466,19.878 -15.034,38.892 -26.388,53.89 0,0 -2.441,-21.441 5.373,-59.494 -11.391,17.527 -24.588,33.676 -39.436,45.224 0,0 3.191,-21.344 20.588,-56.077 -15.539,13.982 -32.466,26.165 -49.797,33.477 0,0 8.606,-19.791 34.399,-48.838 -18.628,9.484 -38.131,16.871 -56.765,19.447 0,0 13.436,-16.888 45.868,-38.269 -20.447,4.339 -41.197,6.426 -59.863,4.092 0,0 17.349,-12.835 54.21,-25.095 -20.874,-1.101 -41.458,-4.455 -58.884,-11.541 0,0 20.081,-7.908 58.86,-10.209 -19.879,-6.467 -38.893,-15.034 -53.892,-26.389 0,0 21.442,-2.442 59.492,5.373 -17.525,-11.391 -33.673,-24.587 -45.22,-39.436 0,0 21.343,3.192 56.075,20.588 -13.981,-15.539 -26.163,-32.466 -33.475,-49.797 0,0 19.791,8.607 48.838,34.4 -9.484,-18.628 -16.871,-38.132 -19.447,-56.766 0,0 16.888,13.435 38.269,45.868 -4.339,-20.447 -6.426,-41.198 -4.092,-59.863 0,0 12.836,17.349 25.094,54.211 1.101,-20.874 4.456,-41.457 11.541,-58.883 0,0 7.909,20.079 10.208,58.857 6.467,-19.878 15.034,-38.891 26.388,-53.889 0,0 2.441,21.442 -5.372,59.494 11.391,-17.527 24.588,-33.676 39.436,-45.224 0,0 -3.191,21.345 -20.588,56.078 15.539,-13.981 32.465,-26.165 49.798,-33.476 0,0 -8.607,19.79 -34.4,48.836 18.628,-9.484 38.131,-16.87 56.764,-19.448 0,0 -13.436,16.89 -45.869,38.272 20.448,-4.34 41.2,-6.428 59.866,-4.094 z"
   style="fill:none;stroke:#fff200;stroke-width:1;stroke-linecap:butt;stroke-linejoin:miter;stroke-miterlimit:4;stroke-dasharray:none;stroke-opacity:1"
   id="path4641" />
         <path
   inkscape:connector-curvature="0"
   d="m 0,0 c -47.508,0 -86.019,-38.512 -86.019,-86.019 0,-47.505 38.511,-86.019 86.019,-86.019 47.506,0 86.019,38.514 86.019,86.019 C 86.019,-38.512 47.506,0 0,0 m 0,-16 c 38.608,0 70.019,-31.411 70.019,-70.019 0,-38.609 -31.411,-70.019 -70.019,-70.019 -38.608,0 -70.019,31.41 -70.019,70.019 C -70.019,-47.411 -38.608,-16 0,-16"
   style="fill:#ffffff;fill-opacity:1;fill-rule:nonzero;stroke:none"
   transform="translate(0,168)"
   id="path4643" />
       </g>
     </g>
   </g></g><path
   id="path4661"
   style="display:none;fill:url(#radialGradient2922);fill-opacity:1"
   inkscape:label="green-bg"
   d="M 499.1543,119.56445 A 330.83435,330.83435 0 0 0 237.00391,249.94141 l 525.24023,-0.002 A 330.83435,330.83435 0 0 0 499.1543,119.56445 Z M 803.05469,319.84961 541.84375,778.17969 A 330.83435,330.83435 0 0 0 829.98828,450.39844 330.83435,330.83435 0 0 0 803.05469,319.84961 Z m -608.28711,2.36328 a 330.83435,330.83435 0 0 0 -26.44922,128.18555 330.83435,330.83435 0 0 0 290.625,327.95898 z" /><path
   id="path3434"
   style="display:inline;fill:url(#radialGradient3438);fill-opacity:1.0"
   inkscape:label="green-bg"
   d="M 499.1543,119.56445 A 330.83435,330.83435 0 0 0 237.00391,249.94141 l 525.24023,-0.002 A 330.83435,330.83435 0 0 0 499.1543,119.56445 Z M 803.05469,319.84961 541.84375,778.17969 A 330.83435,330.83435 0 0 0 829.98828,450.39844 330.83435,330.83435 0 0 0 803.05469,319.84961 Z m -608.28711,2.36328 a 330.83435,330.83435 0 0 0 -26.44922,128.18555 330.83435,330.83435 0 0 0 290.625,327.95898 z" /><circle
   style="display:inline;fill:none;fill-opacity:1;stroke:#000000;stroke-width:22.6772;stroke-miterlimit:4;stroke-dasharray:none;stroke-opacity:1"
   id="path624"
   cx="501.19049"
   cy="451.19049"
   r="361.90479"
   inkscape:label="ring" /><g
   inkscape:groupmode="layer"
   id="layer1"
   inkscape:label="flower"
   style="display:inline"
   sodipodi:insensitive="true"><g
     transform="matrix(1.3333333,0,0,-1.3333333,20.8948,968.12575)"
     id="ng-sunflower-logo">
     <g
   id="ng-sunflower-container">
       
       
       
       
       <g
   transform="translate(359.9746,304.7998)"
   id="sunflower">
         <path
   id="sunflower-fill"
   style="fill:#fff200;fill-opacity:1;fill-rule:nonzero;stroke:none"
   d="m 0,0 c -45.082,0 -81.628,37.054 -81.628,82.77 0,45.708 36.546,82.766 81.628,82.766 45.084,0 81.63,-37.058 81.63,-82.766 C 81.63,37.054 45.084,0 0,0 m 136.801,46.701 c 0,0 -17.35,12.837 -54.211,25.096 20.874,1.101 41.458,4.455 58.884,11.541 0,0 -20.079,7.908 -58.856,10.209 19.877,6.466 38.89,15.034 53.888,26.388 0,0 -21.443,2.441 -59.494,-5.373 17.526,11.391 33.675,24.587 45.222,39.436 0,0 -21.343,-3.191 -56.076,-20.588 13.982,15.539 26.164,32.466 33.476,49.798 0,0 -19.79,-8.607 -48.837,-34.401 9.482,18.628 16.869,38.131 19.446,56.765 0,0 -16.889,-13.435 -38.269,-45.868 4.339,20.447 6.425,41.198 4.092,59.863 0,0 -12.836,-17.349 -25.094,-54.212 -1.102,20.874 -4.456,41.459 -11.541,58.885 0,0 -7.909,-20.08 -10.209,-58.858 -6.466,19.878 -15.034,38.892 -26.388,53.89 0,0 -2.441,-21.441 5.373,-59.494 -11.391,17.527 -24.588,33.676 -39.436,45.224 0,0 3.191,-21.344 20.588,-56.077 -15.539,13.982 -32.466,26.165 -49.797,33.477 0,0 8.606,-19.791 34.399,-48.838 -18.628,9.484 -38.131,16.871 -56.765,19.447 0,0 13.436,-16.888 45.868,-38.269 -20.447,4.339 -41.197,6.426 -59.863,4.092 0,0 17.349,-12.835 54.21,-25.095 -20.874,-1.101 -41.458,-4.455 -58.884,-11.541 0,0 20.081,-7.908 58.86,-10.209 -19.879,-6.467 -38.893,-15.034 -53.892,-26.389 0,0 21.442,-2.442 59.492,5.373 -17.525,-11.391 -33.673,-24.587 -45.22,-39.436 0,0 21.343,3.192 56.075,20.588 -13.981,-15.539 -26.163,-32.466 -33.475,-49.797 0,0 19.791,8.607 48.838,34.4 -9.484,-18.628 -16.871,-38.132 -19.447,-56.766 0,0 16.888,13.435 38.269,45.868 -4.339,-20.447 -6.426,-41.198 -4.092,-59.863 0,0 12.836,17.349 25.094,54.211 1.101,-20.874 4.456,-41.457 11.541,-58.883 0,0 7.909,20.079 10.208,58.857 6.467,-19.878 15.034,-38.891 26.388,-53.889 0,0 2.441,21.442 -5.372,59.494 11.391,-17.527 24.588,-33.676 39.436,-45.224 0,0 -3.191,21.345 -20.588,56.078 15.539,-13.981 32.465,-26.165 49.798,-33.476 0,0 -8.607,19.79 -34.4,48.836 18.628,-9.484 38.131,-16.87 56.764,-19.448 0,0 -13.436,16.89 -45.869,38.272 20.448,-4.34 41.2,-6.428 59.866,-4.094"
   inkscape:connector-curvature="0" />
         <path
   id="sunflower-stroke"
   style="fill:none;stroke:#fff200;stroke-width:1;stroke-linecap:butt;stroke-linejoin:miter;stroke-miterlimit:4;stroke-dasharray:none;stroke-opacity:1"
   d="m 0,0 c -45.082,0 -81.628,37.054 -81.628,82.77 0,45.708 36.546,82.766 81.628,82.766 45.084,0 81.63,-37.058 81.63,-82.766 C 81.63,37.054 45.084,0 0,0 Z m 136.801,46.701 c 0,0 -17.35,12.837 -54.211,25.096 20.874,1.101 41.458,4.455 58.884,11.541 0,0 -20.079,7.908 -58.856,10.209 19.877,6.466 38.89,15.034 53.888,26.388 0,0 -21.443,2.441 -59.494,-5.373 17.526,11.391 33.675,24.587 45.222,39.436 0,0 -21.343,-3.191 -56.076,-20.588 13.982,15.539 26.164,32.466 33.476,49.798 0,0 -19.79,-8.607 -48.837,-34.401 9.482,18.628 16.869,38.131 19.446,56.765 0,0 -16.889,-13.435 -38.269,-45.868 4.339,20.447 6.425,41.198 4.092,59.863 0,0 -12.836,-17.349 -25.094,-54.212 -1.102,20.874 -4.456,41.459 -11.541,58.885 0,0 -7.909,-20.08 -10.209,-58.858 -6.466,19.878 -15.034,38.892 -26.388,53.89 0,0 -2.441,-21.441 5.373,-59.494 -11.391,17.527 -24.588,33.676 -39.436,45.224 0,0 3.191,-21.344 20.588,-56.077 -15.539,13.982 -32.466,26.165 -49.797,33.477 0,0 8.606,-19.791 34.399,-48.838 -18.628,9.484 -38.131,16.871 -56.765,19.447 0,0 13.436,-16.888 45.868,-38.269 -20.447,4.339 -41.197,6.426 -59.863,4.092 0,0 17.349,-12.835 54.21,-25.095 -20.874,-1.101 -41.458,-4.455 -58.884,-11.541 0,0 20.081,-7.908 58.86,-10.209 -19.879,-6.467 -38.893,-15.034 -53.892,-26.389 0,0 21.442,-2.442 59.492,5.373 -17.525,-11.391 -33.673,-24.587 -45.22,-39.436 0,0 21.343,3.192 56.075,20.588 -13.981,-15.539 -26.163,-32.466 -33.475,-49.797 0,0 19.791,8.607 48.838,34.4 -9.484,-18.628 -16.871,-38.132 -19.447,-56.766 0,0 16.888,13.435 38.269,45.868 -4.339,-20.447 -6.426,-41.198 -4.092,-59.863 0,0 12.836,17.349 25.094,54.211 1.101,-20.874 4.456,-41.457 11.541,-58.883 0,0 7.909,20.079 10.208,58.857 6.467,-19.878 15.034,-38.891 26.388,-53.889 0,0 2.441,21.442 -5.372,59.494 11.391,-17.527 24.588,-33.676 39.436,-45.224 0,0 -3.191,21.345 -20.588,56.078 15.539,-13.981 32.465,-26.165 49.798,-33.476 0,0 -8.607,19.79 -34.4,48.836 18.628,-9.484 38.131,-16.87 56.764,-19.448 0,0 -13.436,16.89 -45.869,38.272 20.448,-4.34 41.2,-6.428 59.866,-4.094 z"
   inkscape:connector-curvature="0" />
         <path
   id="sunflower-center"
   transform="translate(0,168)"
   style="fill:#ffffff;fill-opacity:1;fill-rule:nonzero;stroke:none"
   d="m 0,0 c -47.508,0 -86.019,-38.512 -86.019,-86.019 0,-47.505 38.511,-86.019 86.019,-86.019 47.506,0 86.019,38.514 86.019,86.019 C 86.019,-38.512 47.506,0 0,0 m 0,-16 c 38.608,0 70.019,-31.411 70.019,-70.019 0,-38.609 -31.411,-70.019 -70.019,-70.019 -38.608,0 -70.019,31.41 -70.019,70.019 C -70.019,-47.411 -38.608,-16 0,-16"
   inkscape:connector-curvature="0" />
       </g>
     </g>
   </g></g></svg>
