<?xml version="1.0" encoding="UTF-8" standalone="no"?>
<svg id="ng-sunflower"
   xmlns:dc="http://purl.org/dc/elements/1.1/"
   xmlns:cc="http://creativecommons.org/ns#"
   xmlns:rdf="http://www.w3.org/1999/02/22-rdf-syntax-ns#"
   xmlns:svg="http://www.w3.org/2000/svg"
   xmlns="http://www.w3.org/2000/svg"
   viewBox="0 0 960 960"
   height="960"
   width="960"
   xml:space="preserve"
   version="1.1">
   <metadata id="metadata8">
     <rdf:RDF>
       <cc:Work rdf:about="">
         <dc:format>image/svg+xml</dc:format>
         <dc:type rdf:resource="http://purl.org/dc/dcmitype/StillImage" />
       </cc:Work>
     </rdf:RDF>
   </metadata>
   <defs id="ng-sunflower-defs"></defs>
   <g transform="matrix(1.3333333,0,0,-1.3333333,0,960)" id="ng-sunflower-logo">
     <g id="ng-sunflower-container">
       <g transform="translate(154.4341,440.4062)" id="arc-left">
         <path id="arc-left-path"
           style="fill:#0cb14b;fill-opacity:1;fill-rule:nonzero;stroke:none"
           d="m 0,0 c -6.199,-20.402 -9.541,-42.078 -9.541,-64.548 0,-104.014 71.52,-191.055 167.314,-213.128 L 73.93,-130.11 Z" />
       </g>
       <g transform="translate(499.7754,541.9297)" id="arc-top">
         <path id="arc-top-path"
           style="fill:#006e3a;fill-opacity:1;fill-rule:nonzero;stroke:none"
           d="m 0,0 c -37.599,32.709 -86.425,52.475 -139.802,52.475 -53.376,0 -102.204,-19.766 -139.8,-52.475 h 139.803 z" />
       </g>
       <g transform="translate(491.5879,310.2959)" id="arc-right">
         <path id="arc-right-path"
           style="fill:#8cc63f;fill-opacity:1;fill-rule:nonzero;stroke:none"
           d="M 0,0 -83.842,-147.565 C 11.95,-125.489 83.47,-38.452 83.47,65.562 c 0,22.47 -3.342,44.146 -9.541,64.548 z" />
       </g>
       <g transform="translate(589.7627,379.1338)" id="outer-ring">
         <path id="outer-ring-path"
           style="fill:#231f20;fill-opacity:1;fill-rule:nonzero;stroke:none"
           d="m 0,0 c -0.13,-45.398 -12.8,-89.9 -37.312,-128.173 -23.553,-36.776 -57.445,-66.346 -96.96,-84.877 -82.052,-38.48 -181.89,-22.496 -248.708,38.348 -67.703,61.649 -93.071,159.71 -65.255,246.747 27.221,85.18 103.074,148.63 191.9,159.415 89.679,10.89 178.524,-35.087 224.037,-112.549 C -11.195,82.994 -0.119,41.626 0,0 c 0.021,-7.679 11.972,-8.86 11.949,-1.132 -0.131,45.691 -12.29,90.658 -36.117,129.724 -22.87,37.496 -55.749,68.572 -94.645,89.003 -40.399,21.22 -85.983,30.133 -131.419,26.506 -44.519,-3.553 -87.351,-20.476 -123.094,-47.067 -73.608,-54.761 -109.569,-148.966 -94.802,-238.995 14.515,-88.494 78.827,-164.228 164.012,-192.335 86.702,-28.606 184.094,-3.433 247.198,62.106 44.025,45.724 68.687,107.651 68.867,171.058 C 11.972,6.553 0.022,7.73 0,0" />
       </g>
       <g transform="translate(359.9746,304.7998)" id="sunflower">
         <path id="sunflower-fill"
           style="fill:#fff200;fill-opacity:1;fill-rule:nonzero;stroke:none"
           d="m 0,0 c -45.082,0 -81.628,37.054 -81.628,82.77 0,45.708 36.546,82.766 81.628,82.766 45.084,0 81.63,-37.058 81.63,-82.766 C 81.63,37.054 45.084,0 0,0 m 136.801,46.701 c 0,0 -17.35,12.837 -54.211,25.096 20.874,1.101 41.458,4.455 58.884,11.541 0,0 -20.079,7.908 -58.856,10.209 19.877,6.466 38.89,15.034 53.888,26.388 0,0 -21.443,2.441 -59.494,-5.373 17.526,11.391 33.675,24.587 45.222,39.436 0,0 -21.343,-3.191 -56.076,-20.588 13.982,15.539 26.164,32.466 33.476,49.798 0,0 -19.79,-8.607 -48.837,-34.401 9.482,18.628 16.869,38.131 19.446,56.765 0,0 -16.889,-13.435 -38.269,-45.868 4.339,20.447 6.425,41.198 4.092,59.863 0,0 -12.836,-17.349 -25.094,-54.212 -1.102,20.874 -4.456,41.459 -11.541,58.885 0,0 -7.909,-20.08 -10.209,-58.858 -6.466,19.878 -15.034,38.892 -26.388,53.89 0,0 -2.441,-21.441 5.373,-59.494 -11.391,17.527 -24.588,33.676 -39.436,45.224 0,0 3.191,-21.344 20.588,-56.077 -15.539,13.982 -32.466,26.165 -49.797,33.477 0,0 8.606,-19.791 34.399,-48.838 -18.628,9.484 -38.131,16.871 -56.765,19.447 0,0 13.436,-16.888 45.868,-38.269 -20.447,4.339 -41.197,6.426 -59.863,4.092 0,0 17.349,-12.835 54.21,-25.095 -20.874,-1.101 -41.458,-4.455 -58.884,-11.541 0,0 20.081,-7.908 58.86,-10.209 -19.879,-6.467 -38.893,-15.034 -53.892,-26.389 0,0 21.442,-2.442 59.492,5.373 -17.525,-11.391 -33.673,-24.587 -45.22,-39.436 0,0 21.343,3.192 56.075,20.588 -13.981,-15.539 -26.163,-32.466 -33.475,-49.797 0,0 19.791,8.607 48.838,34.4 -9.484,-18.628 -16.871,-38.132 -19.447,-56.766 0,0 16.888,13.435 38.269,45.868 -4.339,-20.447 -6.426,-41.198 -4.092,-59.863 0,0 12.836,17.349 25.094,54.211 1.101,-20.874 4.456,-41.457 11.541,-58.883 0,0 7.909,20.079 10.208,58.857 6.467,-19.878 15.034,-38.891 26.388,-53.889 0,0 2.441,21.442 -5.372,59.494 11.391,-17.527 24.588,-33.676 39.436,-45.224 0,0 -3.191,21.345 -20.588,56.078 15.539,-13.981 32.465,-26.165 49.798,-33.476 0,0 -8.607,19.79 -34.4,48.836 18.628,-9.484 38.131,-16.87 56.764,-19.448 0,0 -13.436,16.89 -45.869,38.272 20.448,-4.34 41.2,-6.428 59.866,-4.094" />
         <path id="sunflower-stroke"
           style="fill:none;stroke:#fff200;stroke-width:1;stroke-linecap:butt;stroke-linejoin:miter;stroke-miterlimit:4;stroke-dasharray:none;stroke-opacity:1"
           d="m 0,0 c -45.082,0 -81.628,37.054 -81.628,82.77 0,45.708 36.546,82.766 81.628,82.766 45.084,0 81.63,-37.058 81.63,-82.766 C 81.63,37.054 45.084,0 0,0 Z m 136.801,46.701 c 0,0 -17.35,12.837 -54.211,25.096 20.874,1.101 41.458,4.455 58.884,11.541 0,0 -20.079,7.908 -58.856,10.209 19.877,6.466 38.89,15.034 53.888,26.388 0,0 -21.443,2.441 -59.494,-5.373 17.526,11.391 33.675,24.587 45.222,39.436 0,0 -21.343,-3.191 -56.076,-20.588 13.982,15.539 26.164,32.466 33.476,49.798 0,0 -19.79,-8.607 -48.837,-34.401 9.482,18.628 16.869,38.131 19.446,56.765 0,0 -16.889,-13.435 -38.269,-45.868 4.339,20.447 6.425,41.198 4.092,59.863 0,0 -12.836,-17.349 -25.094,-54.212 -1.102,20.874 -4.456,41.459 -11.541,58.885 0,0 -7.909,-20.08 -10.209,-58.858 -6.466,19.878 -15.034,38.892 -26.388,53.89 0,0 -2.441,-21.441 5.373,-59.494 -11.391,17.527 -24.588,33.676 -39.436,45.224 0,0 3.191,-21.344 20.588,-56.077 -15.539,13.982 -32.466,26.165 -49.797,33.477 0,0 8.606,-19.791 34.399,-48.838 -18.628,9.484 -38.131,16.871 -56.765,19.447 0,0 13.436,-16.888 45.868,-38.269 -20.447,4.339 -41.197,6.426 -59.863,4.092 0,0 17.349,-12.835 54.21,-25.095 -20.874,-1.101 -41.458,-4.455 -58.884,-11.541 0,0 20.081,-7.908 58.86,-10.209 -19.879,-6.467 -38.893,-15.034 -53.892,-26.389 0,0 21.442,-2.442 59.492,5.373 -17.525,-11.391 -33.673,-24.587 -45.22,-39.436 0,0 21.343,3.192 56.075,20.588 -13.981,-15.539 -26.163,-32.466 -33.475,-49.797 0,0 19.791,8.607 48.838,34.4 -9.484,-18.628 -16.871,-38.132 -19.447,-56.766 0,0 16.888,13.435 38.269,45.868 -4.339,-20.447 -6.426,-41.198 -4.092,-59.863 0,0 12.836,17.349 25.094,54.211 1.101,-20.874 4.456,-41.457 11.541,-58.883 0,0 7.909,20.079 10.208,58.857 6.467,-19.878 15.034,-38.891 26.388,-53.889 0,0 2.441,21.442 -5.372,59.494 11.391,-17.527 24.588,-33.676 39.436,-45.224 0,0 -3.191,21.345 -20.588,56.078 15.539,-13.981 32.465,-26.165 49.798,-33.476 0,0 -8.607,19.79 -34.4,48.836 18.628,-9.484 38.131,-16.87 56.764,-19.448 0,0 -13.436,16.89 -45.869,38.272 20.448,-4.34 41.2,-6.428 59.866,-4.094 z" />
         <path id="sunflower-center" transform="translate(0,168)"
           style="fill:#ffffff;fill-opacity:1;fill-rule:nonzero;stroke:none"
           d="m 0,0 c -47.508,0 -86.019,-38.512 -86.019,-86.019 0,-47.505 38.511,-86.019 86.019,-86.019 47.506,0 86.019,38.514 86.019,86.019 C 86.019,-38.512 47.506,0 0,0 m 0,-16 c 38.608,0 70.019,-31.411 70.019,-70.019 0,-38.609 -31.411,-70.019 -70.019,-70.019 -38.608,0 -70.019,31.41 -70.019,70.019 C -70.019,-47.411 -38.608,-16 0,-16" />
       </g>
     </g>
   </g>
 </svg>
