<?xml version="1.0" encoding="UTF-8" standalone="no"?>

<svg
   version="1.1"
   id="svg1"
   width="1966.08"
   height="1966.08"
   viewBox="0 0 1966.08 1966.08"
   sodipodi:docname="WorkerBee Bee Vector.svg"
   inkscape:version="1.4 (86a8ad7, 2024-10-11)"
   xmlns:inkscape="http://www.inkscape.org/namespaces/inkscape"
   xmlns:sodipodi="http://sodipodi.sourceforge.net/DTD/sodipodi-0.dtd"
   xmlns="http://www.w3.org/2000/svg"
   xmlns:svg="http://www.w3.org/2000/svg">
  <defs
     id="defs1" />
  <sodipodi:namedview
     id="namedview1"
     pagecolor="#ffffff"
     bordercolor="#000000"
     borderopacity="0.25"
     inkscape:showpageshadow="2"
     inkscape:pageopacity="0.0"
     inkscape:pagecheckerboard="0"
     inkscape:deskcolor="#d1d1d1"
     showgrid="false"
     inkscape:zoom="0.48"
     inkscape:cx="978.125"
     inkscape:cy="650"
     inkscape:window-width="1366"
     inkscape:window-height="697"
     inkscape:window-x="-8"
     inkscape:window-y="-8"
     inkscape:window-maximized="1"
     inkscape:current-layer="svg1" />
  <g
     inkscape:groupmode="layer"
     id="layer1"
     inkscape:label="Image 1">
    <path
       style="fill:#000000"
       d="m 1460.64,1613.2137 c -1.056,-0.2402 -4.296,-0.9367 -7.2,-1.5479 -9.2375,-1.9442 -20.5089,-8.4304 -27.42,-15.7793 l -3.8999,-4.1469 -7.6201,2.8651 c -8.3744,3.1488 -19.1569,6.2082 -24.9,7.0652 -1.056,0.1576 -3.648,0.5576 -5.76,0.8889 -2.112,0.3314 -5.784,0.9021 -8.16,1.2683 -5.7654,0.8887 -34.5215,0.9221 -41.76,0.049 -7.6758,-0.9262 -9.0468,-1.1725 -19.68,-3.5356 -5.016,-1.1147 -10.416,-2.2718 -12,-2.5713 -12.347,-2.3347 -19.7632,-7.3116 -29.1952,-19.5927 -2.9502,-3.8413 -6.4104,-13.3541 -7.8367,-21.5441 -0.6675,-3.8335 -1.6612,-6.5889 -2.4908,-6.9073 -0.7591,-0.2913 -5.137,1.095 -9.7287,3.0806 -4.5918,1.9856 -11.3726,4.6507 -15.0686,5.9223 -3.696,1.2717 -7.584,2.7184 -8.64,3.2151 -1.056,0.4966 -3.864,1.375 -6.24,1.9519 -27.6759,6.7203 -48.8683,7.3502 -65.28,1.9404 -7.974,-2.6285 -11.4942,-4.1942 -23.04,-10.2477 -4.0907,-2.1448 -14.0376,-11.1597 -18.6993,-16.9473 -2.4454,-3.036 -4.8649,-5.52 -5.3766,-5.52 -0.9566,0 -7.353,4.2236 -13.4547,8.8843 -1.8979,1.4496 -3.7066,2.6357 -4.0194,2.6357 -0.3127,0 -3.296,1.844 -6.6293,4.0978 -35.8268,24.2234 -79.0264,46.2829 -98.22072,50.1557 -2.112,0.4261 -4.272,0.8734 -4.8,0.9939 -10.36661,2.3667 -26.09559,2.9959 -35.1704,1.4071 -3.69044,-0.6461 -10.30993,-3.1097 -16.71755,-6.2218 -9.08964,-4.4147 -11.49421,-6.1005 -16.8,-11.7782 -6.23368,-6.6707 -8.16431,-9.6939 -15.18262,-23.7745 -5.69904,-11.4339 -7.54059,-18.1035 -11.7105,-42.4127 -1.40566,-8.1945 -1.99393,-9.3386 -4.40776,-8.5724 -1.85142,0.5876 -11.35902,6.3835 -13.49065,8.224 -0.63772,0.5506 -1.43503,1.0011 -1.77181,1.0011 -0.33677,0 -1.96479,0.972 -3.6178,2.16 -4.85339,3.488 -30.26115,16.5739 -46.25091,23.8208 -17.17068,7.7821 -49.69074,11.6983 -67.83555,8.169 -8.3436,-1.623 -19.21855,-5.9764 -25.1872,-10.0829 -2.35575,-1.6208 -4.69508,-2.9469 -5.19851,-2.9469 -1.06535,0 -5.40215,-4.7747 -12.17874,-13.4084 -13.29599,-16.9397 -18.41947,-34.0341 -19.2858,-64.3463 -0.55839,-19.5378 2.33236,-36.9556 9.72634,-58.6048 5.05884,-14.8121 8.88808,-24.4563 11.03822,-27.8005 1.54797,-2.4077 3.04938,-6.0847 3.7239,-9.12 0.63704,-2.8667 0.59992,-2.8959 -8.04133,-6.3254 -10.17168,-4.0369 -16.20556,-6.9991 -20.20133,-9.9173 -1.584,-1.1568 -4.824,-3.2531 -7.2,-4.6584 -2.376,-1.4053 -7.77599,-5.8043 -11.99999,-9.7756 -4.224,-3.9713 -7.99001,-7.2257 -8.36891,-7.2319 -1.33268,-0.022 -8.30389,-10.1819 -12.60679,-18.3731 -6.67849,-12.7136 -7.60552,-17.3444 -8.23701,-41.1472 -0.61255,-23.0884 -0.36316,-22.4261 -7.66662,-20.3599 -10.21222,2.8891 -43.1513,8.0331 -62.48067,9.7574 -22.23001,1.983 -58.92758,0.7746 -74.80131,-2.4632 -22.84378,-4.6595 -45.37715,-16.4279 -54.62851,-28.5306 -4.86887,-6.3695 -10.8945,-18.4444 -13.76403,-27.5822 -2.06343,-6.5708 -2.24615,-8.8317 -2.24615,-27.7926 0,-22.957 -0.11549,-22.3158 7.91379,-43.9364 2.40537,-6.477 4.11411,-12.0357 3.79719,-12.3526 -0.31693,-0.317 -8.26555,2.0445 -17.6636,5.2477 -20.28836,6.915 -39.54408,11.977 -53.36925,14.0298 -14.96094,2.2215 -43.62224,2.0115 -55.39813,-0.4059 -38.41585,-7.8862 -58.66628,-41.5632 -56.29658,-93.6226 1.02453,-22.5079 5.90605,-42.53594 15.03065,-61.66839 21.0172,-44.06881 55.37521,-84.37101 92.52135,-108.52823 10.338,-6.7231 28.16731,-15.29147 37.36792,-17.95818 3.07083,-0.89006 5.79488,-2.16958 6.05344,-2.84338 0.25857,-0.6738 -0.38455,-3.76686 -1.42914,-6.87347 -3.20607,-9.53481 -6.74305,-24.55699 -9.97889,-42.38206 -3.02524,-16.66497 -3.09025,-17.61713 -3.06335,-44.86631 0.0238,-24.07261 0.32112,-29.72369 2.19742,-41.76 5.11706,-32.82556 12.59064,-57.61389 24.54927,-81.42496 6.97397,-13.88599 13.63423,-23.09708 24.22942,-33.50908 8.71516,-8.56448 11.23653,-10.43173 19.80261,-14.66519 12.61663,-6.23531 20.78407,-7.98637 34.77588,-7.45578 8.37791,0.31771 11.38433,0.82623 14.54925,2.46095 7.47619,3.86154 10.53156,10.17332 9.62486,19.883 -1.97444,21.14371 -25.47496,49.39895 -52.0793,62.61616 -8.50591,4.22579 -14.30237,5.53491 -24.50726,5.53491 -10.28417,0 -12.68153,-1.02173 -12.19609,-5.19783 0.28611,-2.46129 0.37739,-2.48703 10.84854,-3.05912 8.42775,-0.46046 11.91689,-1.12095 17.28,-3.27109 18.42892,-7.38838 40.15355,-28.02544 48.73994,-46.29994 2.40708,-5.12301 3.05556,-7.77605 3.07519,-12.58104 0.0228,-5.58038 -0.2074,-6.27438 -2.75564,-8.3081 -3.4229,-2.73176 -6.408,-3.36288 -15.90593,-3.36288 -8.18328,0 -19.63193,2.54975 -26.11587,5.81633 -11.18306,5.63396 -24.55179,18.47246 -34.33931,32.97734 -13.62326,20.18936 -25.09972,53.45355 -30.83221,89.36632 -2.56265,16.05442 -3.61554,52.97016 -1.93034,67.68 2.51877,21.98588 11.89875,62.35198 15.52747,66.82142 0.47397,0.58378 3.65069,1.32185 7.05938,1.64016 11.79263,1.10121 17.79732,6.05608 17.79732,14.68575 0,6.02863 -1.67444,7.661 -8.87016,8.64728 -7.22736,0.99062 -13.3524,-2.76033 -20.05507,-12.28165 l -1.56524,-2.22345 -8.51476,2.74823 c -23.00903,7.42642 -46.69553,23.20443 -70.28679,46.81933 -20.28197,20.30228 -39.69667,46.73335 -51.70952,70.39706 -20.42895,40.24229 -22.13067,94.78349 -3.81607,122.30739 3.97481,5.9735 13.90019,15.6792 19.22557,18.8001 24.04074,14.0888 72.78976,11.1699 122.55204,-7.3379 14.21405,-5.2866 50.62227,-22.0018 55.2,-25.3426 1.584,-1.156 4.66329,-2.9971 6.84287,-4.0912 7.17367,-3.6013 28.44729,-18.4134 41.63713,-28.9906 13.14343,-10.5399 32.54729,-29.4798 42.7413,-41.7193 16.51592,-19.82995 29.54994,-45.78319 33.5301,-66.76488 1.71327,-9.03164 1.96698,-28.58101 0.4799,-36.97883 -1.18207,-6.67538 -5.24096,-19.58961 -7.69475,-24.4825 -1.9114,-3.81138 -6.5306,-8.03767 -14.06874,-12.87209 l -5.01219,-3.21445 -0.51992,3.03636 c -0.28595,1.67001 -1.14785,7.3642 -1.91532,12.65377 -6.69409,46.1368 -24.42384,79.44474 -51.93635,97.57007 -23.97239,15.79308 -54.62209,23.84315 -69.40041,18.22782 -7.34411,-2.79055 -11.28765,-6.37697 -14.75711,-13.42075 -2.97616,-6.04226 -3.14269,-6.96488 -3.46298,-19.18567 -0.27832,-10.6194 0.025,-14.4024 1.75501,-21.88912 6.89155,-29.8233 27.15136,-60.89456 51.22224,-78.55647 8.71903,-6.39755 24.29676,-14.03248 33.27922,-16.31075 9.70592,-2.46176 25.74115,-2.9593 36.24042,-1.12446 4.88424,0.85356 9.20424,1.55203 9.6,1.55215 0.39577,1.2e-4 0.56869,-8.76727 0.38427,-19.48308 -0.27342,-15.8869 0.0479,-22.39924 1.74085,-35.28022 1.14188,-8.6883 2.43944,-17.52492 2.88347,-19.63692 0.44403,-2.112 1.08405,-8.16 1.42227,-13.44 3.00146,-46.85606 10.03508,-73.44599 25.65509,-96.98666 16.82934,-25.36322 33.63652,-40.62483 54.70044,-49.67026 6.51198,-2.79642 7.86348,-3.02676 17.61319,-3.00189 11.63186,0.0297 16.85981,1.52574 25.06927,7.174 3.92199,2.6984 4.21072,3.19347 4.21072,7.21992 0,3.97498 -0.25108,4.4257 -3.12,5.60062 -1.716,0.70277 -9.6,2.42376 -17.51999,3.82444 -44.62335,7.89178 -56.93754,16.25821 -71.47313,48.55983 -8.11438,18.03212 -18.9797,51.92927 -24.47922,76.36916 -2.07863,9.23746 -2.57737,15.19535 -3.85735,46.08 -0.80853,19.50896 -1.47011,38.15757 -1.47018,41.44134 l -1.2e-4,5.9705 5.52,3.5103 c 3.036,1.93067 7.50638,5.35588 9.93418,7.61158 3.71436,3.45106 5.61685,4.38315 12,5.8792 6.61802,1.55109 11.81125,1.77641 40.70582,1.76612 18.216,-0.006 35.95072,-0.35575 39.4105,-0.77612 l 6.2905,-0.76431 -3.1114,-6.18204 c -1.71128,-3.40012 -3.41184,-8.18546 -3.77903,-10.63409 -1.08643,-7.24482 0.91663,-17.983 4.83244,-25.9061 3.01256,-6.09548 4.73372,-8.10639 12.89279,-15.06309 14.41726,-12.29266 38.71713,-29.51859 72.10419,-51.11393 5.544,-3.58595 14.4,-9.3239 19.68,-12.75099 14.05205,-9.12075 31.10697,-19.79987 63.43182,-39.71848 28.73888,-17.70893 45.24547,-27.68396 145.84818,-88.13695 66.51272,-39.96803 80.52322,-48.62847 108.96002,-67.35255 12.408,-8.16999 25.584,-16.80992 29.28,-19.19984 11.3074,-7.31171 26.4801,-17.13485 34.56,-22.37496 11.2261,-7.28058 58.9094,-35.83846 70.08,-41.97143 69.9642,-38.41232 126.1668,-58.75585 185.7541,-67.23697 12.9438,-1.84232 18.9563,-2.11541 46.0859,-2.09326 42.4462,0.0346 60.4628,2.58197 77.28,10.92641 10.9712,5.44377 16.575,10.10138 22.1806,18.43552 9.9081,14.73075 13.8218,28.47689 13.8155,48.52452 -0.01,31.11947 -9.9478,61.88672 -36.6808,113.56047 -24.903,48.13648 -38.7776,69.73018 -63.2421,98.42606 -17.2459,20.2288 -51.9381,52.55968 -75.0603,69.95129 l -10.347,7.78264 4.107,0.62043 c 2.2589,0.34123 9.7231,1.3456 16.5871,2.23194 52.1428,6.73307 85.3257,22.35633 96.2325,45.30847 3.2666,6.87421 3.6047,8.36905 3.9417,17.42769 0.2047,5.5021 -0.1462,12.52535 -0.7891,15.79285 -1.4231,7.23363 -7.069,18.52772 -12.9618,25.9291 -12.9236,16.23189 -43.5705,32.78965 -81.1433,43.83982 -23.3668,6.87216 -91.682,23.27019 -114.24,27.42159 -60.0803,11.0567 -112.3967,17.47793 -168.48,20.67895 -30.2708,1.72773 -80.4426,2.41443 -118.08,1.61615 -66.11292,-1.40224 -55.34377,-2.02526 -81.12002,4.69292 -29.1319,7.59278 -43.0039,10.01276 -61.07288,10.65419 -15.2208,0.54032 -26.62813,-0.96731 -30.71211,-4.05902 -0.99878,-0.75611 -3.98548,-1.38775 -6.6414,-1.40455 -6.36718,-0.0403 -8.63317,-1.79533 -10.46828,-8.10789 -1.65924,-5.70758 -12.07757,-22.15972 -20.72165,-32.72264 -10.57685,-12.92475 -28.46549,-28.70076 -42.70368,-37.66044 -11.78997,-7.41909 -28.88206,-14.53384 -44.61588,-18.57179 -8.05012,-2.06599 -8.69275,-2.08058 -60.96,-1.38338 -39.13433,0.52202 -54.77347,0.40851 -60.346,-0.43799 -4.13704,-0.62845 -7.67411,-0.9904 -7.86016,-0.80436 -0.18604,0.18605 0.91367,3.87609 2.44381,8.20009 4.65759,13.1618 5.98482,22.67101 5.52443,39.581 -0.63081,23.16942 -5.74054,40.18011 -19.05889,63.44853 -18.57725,32.45626 -47.56475,60.90176 -92.5673,90.83656 -21.27988,14.1549 -30.2966,19.4714 -36.29794,21.4021 -4.2868,1.3791 -4.64332,2.0393 -13.0059,24.0832 -8.15768,21.5038 -9.73773,28.502 -9.72867,43.0892 0.0102,16.4707 2.17896,25.634 7.32076,30.9318 10.24152,10.5524 24.01922,17.5157 43.96367,22.2194 7.99423,1.8853 11.38374,2.0549 41.34808,2.0683 35.69227,0.016 44.52569,-0.8199 75.97799,-7.1902 7.74486,-1.5686 15.49804,-2.852 17.22929,-2.852 3.24264,0 8.13085,-1.4934 9.01318,-2.7536 0.27474,-0.3924 3.30754,-1.6957 6.73954,-2.8961 8.96496,-3.1356 18.82821,-10.018 21.29972,-14.8626 6.38239,-12.5105 22.40508,-35.3977 33.24678,-47.4905 24.98597,-27.8693 50.32552,-48.2954 77.93349,-62.8219 16.27794,-8.565 26.45074,-12.6112 42.03374,-16.7189 13.09949,-3.453 13.28797,-3.4728 37.16626,-3.8985 24.53146,-0.4373 29.60767,-0 38.30504,3.2864 7.24302,2.7384 8.68236,5.3694 9.00627,16.4633 l 0.2713,9.2924 -4.86076,8.8615 c -5.5715,10.1573 -17.10025,22.9751 -28.18122,31.3322 -3.77335,2.8458 -7.72463,6.1445 -8.78063,7.3303 -1.056,1.1859 -5.02222,4.2551 -8.81383,6.8206 -3.7916,2.5655 -7.14779,5.0755 -7.45819,5.5777 -1.09434,1.7707 -30.50492,23.3256 -43.14732,31.6225 -15.78222,10.3575 -35.71264,20.6664 -55.30066,28.604 -12.55166,5.0862 -59.27229,20.972 -79.19999,26.9293 -5.35163,1.5998 -5.84995,1.9941 -7.02862,5.5619 -1.91381,5.793 -1.16469,40.9503 0.97496,45.7559 3.13693,7.0455 17.52463,19.5167 31.34058,27.1659 16.96564,9.3931 20.94786,10.4998 45.27307,12.5819 l 7.2,0.6163 2.64018,-4.18 c 5.54251,-8.7751 16.96482,-25.4381 19.58459,-28.5703 1.50438,-1.7986 5.32723,-7.0561 8.49523,-11.6832 27.73592,-40.511 59.06115,-80.0309 84,-105.9744 32.03493,-33.3254 58.23303,-58.1102 83.24303,-78.7521 0.63973,-0.528 3.01575,-2.5675 5.28006,-4.5322 15.97243,-13.8592 54.18454,-41.8391 62.19693,-45.5422 0.792,-0.3661 1.656,-0.9218 1.92,-1.235 0.6186,-0.7338 11.8479,-6.2294 16.6888,-8.1675 8.2208,-3.2911 28.6318,-7.3358 34.2915,-6.7952 4.5199,0.4317 10.7207,3.6406 13.2509,6.8573 6.8233,8.6744 7.3065,31.4806 1.095,51.6844 -0.4955,1.6117 -1.6056,5.5224 -2.4669,8.6904 -0.8613,3.168 -1.9418,6.624 -2.4012,7.68 -0.8863,2.0373 -3.178,7.8383 -6.8265,17.28 -1.2242,3.168 -4.0298,9.432 -6.2347,13.92 -2.2049,4.488 -7.1121,14.6194 -10.905,22.5142 -3.7929,7.8948 -7.4432,14.8068 -8.1118,15.36 -0.6686,0.5532 -3.4808,5.3258 -6.2492,10.6058 -2.7685,5.28 -7.5206,13.056 -10.5604,17.28 -3.0397,4.224 -6.0553,8.6847 -6.7013,9.9126 -0.646,1.228 -1.8089,2.956 -2.5841,3.84 -0.7753,0.8841 -4.2288,5.0634 -7.67442,9.2874 -14.12788,17.3192 -31.01898,34.773 -43.0907,44.5261 -14.11442,11.4036 -38.5741,29.0834 -45.6,32.9604 -2.376,1.3112 -7.46818,4.4245 -11.31595,6.9185 -12.76858,8.2761 -48.44402,25.6188 -67.40405,32.7666 -28.40124,10.7072 -46.8641,14.5248 -76.8,15.8805 -12.408,0.5619 -23.11816,1.1964 -23.80036,1.4101 -0.6822,0.2137 -2.8059,3.7431 -4.71932,7.8431 -1.91342,4.1001 -4.07176,8.1549 -4.79631,9.0108 -2.51213,2.9674 -7.98529,17.3898 -11.91673,31.4018 -7.57943,27.0139 -8.8262,39.4767 -6.17695,61.7451 1.87613,15.77 3.7904,21.2639 9.00996,25.8583 5.72615,5.0404 14.97485,10.043 20.79971,11.2506 16.15039,3.3481 36.49242,2.1263 54.33284,-3.2634 15.50927,-4.6854 19.31527,-6.3393 41.18716,-17.898 15.68436,-8.2888 38.24263,-22.9686 41.7928,-27.1967 2.03846,-2.4277 16.46864,-11.9338 18.11539,-11.9338 1.56816,0 6.33181,-5.0464 6.33181,-6.7076 0,-0.8517 0.4076,-1.9588 0.90578,-2.4604 0.49818,-0.5016 2.26482,-4.8 3.92586,-9.552 4.63912,-13.2719 25.90476,-54.9975 33.38026,-65.4959 1.18774,-1.668 2.80888,-4.4618 3.60251,-6.2084 0.79364,-1.7467 3.18292,-5.5517 5.30952,-8.4557 2.12659,-2.904 4.96897,-7.44 6.31639,-10.08 1.34742,-2.64 4.69374,-7.824 7.43628,-11.52 2.74254,-3.696 6.66334,-9.528 8.71289,-12.96 2.04955,-3.432 5.52712,-8.4 7.72793,-11.04 2.2008,-2.64 5.56951,-7.176 7.48602,-10.08 1.91651,-2.904 5.6624,-8.088 8.32422,-11.52 9.02075,-11.6309 16.78606,-21.3285 18.34306,-22.9074 0.8529,-0.865 2.6367,-3.3006 3.964,-5.4126 1.3273,-2.112 5.2735,-7.265 8.7693,-11.451 3.4958,-4.1861 6.356,-7.9421 6.356,-8.3468 0,-0.4046 2.8342,-4.1077 6.2983,-8.229 3.464,-4.1213 7.676,-9.1496 9.36,-11.174 6.239,-7.5007 19.9457,-21.9801 23.9194,-25.2681 2.2563,-1.8669 5.248,-4.5411 6.6483,-5.9427 1.4003,-1.4016 3.7763,-3.4862 5.28,-4.6324 2.8132,-2.1443 7.953,-6.2784 11.361,-9.1378 1.0632,-0.892 2.8647,-2.404 4.0034,-3.36 1.1388,-0.956 3.0329,-2.3862 4.2093,-3.1782 1.1763,-0.792 4.3486,-3.1727 7.0495,-5.2904 7.1141,-5.5781 16.5812,-11.9896 17.7034,-11.9896 0.532,0 1.1114,-0.3411 1.2874,-0.7579 0.5685,-1.3464 9.7357,-6.5265 16.64,-9.4027 5.8201,-2.4245 7.9413,-2.7994 15.84,-2.7994 7.8995,0 9.6048,0.3014 12.7432,2.2527 4.1344,2.5704 6.2846,6.1343 6.87,11.3868 1.4035,12.5936 1.6635,16.1472 1.7123,23.3996 0.073,10.8231 -1.6598,23.7746 -4.0347,30.1609 -0.3927,1.056 -1.5816,4.296 -2.6419,7.2 -1.0603,2.904 -3.5952,9.6 -5.6331,14.88 -2.0379,5.28 -3.7317,9.816 -3.7639,10.08 -0.032,0.264 -1.0996,2.424 -2.3719,4.8 -1.2723,2.376 -2.3444,4.536 -2.3825,4.8 -0.3858,2.6752 -13.4918,26.1645 -17.9273,32.1301 -3.1528,4.2404 -7.6008,10.5553 -9.8844,14.033 -17.5388,26.7093 -64.8909,74.9927 -116.2883,118.5754 -17.36499,14.7248 -48.21126,39.2114 -70.95752,56.3281 -6.864,5.1652 -14.26345,10.7822 -16.44322,12.4823 -2.17977,1.7001 -7.32663,5.4671 -11.43746,8.3711 -12.66079,8.9439 -12.14148,8.0869 -11.4904,18.962 0.56301,9.4041 2.72048,23.6078 4.26488,28.078 0.45605,1.32 1.55198,4.853 2.43539,7.8511 1.49127,5.0611 4.1458,9.4289 5.73044,9.4289 0.37094,0 2.52833,1.2755 4.79421,2.8344 5.44396,3.7456 13.10781,6.611 19.74616,7.3828 5.8765,0.6833 22.23131,0.2917 28.8,-0.6896 12.43332,-1.8573 39.54122,-12.1397 51.84002,-19.6637 1.848,-1.1305 6.384,-3.6919 10.08,-5.6919 3.696,-2 8.0952,-4.6569 9.7759,-5.9042 1.6808,-1.2473 3.2572,-2.2678 3.5032,-2.2678 0.2459,0 2.9748,-1.7538 6.064,-3.8973 3.0893,-2.1436 8.2089,-5.5826 11.3769,-7.6425 9.1391,-5.9422 16.4185,-11.2999 28.923,-21.2877 l 11.6527,-9.3074 1.6482,-11.3326 c 3.3961,-23.3513 8.0634,-40.0063 14.8782,-53.0925 1.5123,-2.904 3.6757,-7.7578 4.8075,-10.7862 1.1319,-3.0283 3.69,-7.9963 5.6848,-11.0399 17.2979,-26.3935 23.057,-34.702 30.2321,-43.6149 5.9446,-7.3845 39.6368,-41.119 41.0674,-41.119 0.4559,0 2.6553,-1.6607 4.8875,-3.6904 6.431,-5.8475 31.2394,-23.5235 38.6186,-27.5156 35.0915,-18.9845 39.8718,-20.8266 55.5112,-21.3909 19.5231,-0.7044 23.6888,2.5435 23.6888,18.4701 0,9.2911 -2.3818,17.6295 -8.7882,30.7668 -4.8945,10.0368 -15.3755,28.7241 -17.3404,30.9173 -1.9618,2.1899 -8.2362,11.5264 -9.8804,14.7026 -0.689,1.331 -2.3111,3.491 -3.6046,4.8 -1.2936,1.309 -4.3656,5.335 -6.8268,8.9465 -4.9111,7.2066 -13.0629,16.9257 -19.8441,23.6596 -2.4005,2.3837 -8.634,8.87 -13.8523,14.414 -19.8144,21.0512 -69.6334,70.8242 -85.4632,85.3842 -9.8238,9.0358 -24.2671,21.8944 -26.7623,23.826 -2.3125,1.7903 -2.5644,2.3768 -1.5471,3.6026 1.6008,1.9288 15.5042,8.4795 21.5894,10.1721 7.7032,2.1426 30.4586,1.6575 42.4264,-0.9045 10.4786,-2.2431 25.9251,-7.168 27.5367,-8.7795 0.5395,-0.5395 1.5783,-0.9809 2.3084,-0.9809 0.7302,0 4.8163,-1.728 9.0803,-3.84 4.264,-2.112 8.3551,-3.84 9.0914,-3.84 0.7362,0 2.928,-1.08 4.8706,-2.4 1.9425,-1.32 3.9784,-2.4 4.5243,-2.4 0.5458,0 3.946,-1.726 7.556,-3.8356 3.61,-2.1096 6.92,-3.6153 7.3556,-3.3461 0.4356,0.2693 1.0683,-0.3807 1.4058,-1.4444 0.3376,-1.0637 1.2327,-1.9339 1.9892,-1.9339 0.7564,0 1.3753,-0.3602 1.3753,-0.8003 0,-0.4401 1.7036,-2.6457 3.7859,-4.9012 2.0823,-2.2555 4.0728,-5.4594 4.4234,-7.1197 1.1076,-5.2453 10.9362,-28.711 14.3931,-34.3635 1.8247,-2.9836 3.3176,-5.853 3.3176,-6.3765 0,-1.312 8.7267,-16.7737 10.1361,-17.9588 0.6279,-0.528 3.1911,-4.1471 5.696,-8.0424 5.5967,-8.7033 14.4197,-19.612 22.1485,-27.3843 3.2014,-3.2193 6.5991,-7.0413 7.5505,-8.4933 0.9513,-1.452 2.1922,-2.64 2.7575,-2.64 0.5653,0 2.9996,-1.6409 5.4096,-3.6464 9.3845,-7.8095 16.0737,-11.617 26.6413,-15.1644 6.5982,-2.215 7.5536,-2.297 15.4008,-1.3219 13.8231,1.7178 19.9454,6.5648 23.8734,18.9005 2.4278,7.6246 2.5389,8.8028 2.0459,21.6874 -0.4396,11.4886 -0.9762,15.1063 -3.4223,23.0738 -1.5955,5.197 -3.514,10.165 -4.2633,11.04 -0.7493,0.875 -3.1199,5.263 -5.2682,9.751 -8.2463,17.2283 -23.9284,37.5306 -35.7458,46.2773 -1.848,1.3678 -4.4032,3.4781 -5.6781,4.6895 -4.0293,3.8285 -13.7981,10.1164 -20.742,13.3512 -3.685,1.7166 -7.8879,3.9607 -9.3399,4.9869 -1.452,1.0262 -2.64,1.5534 -2.64,1.1716 0,-0.3817 -0.756,-0.033 -1.68,0.7755 -0.924,0.8084 -8.592,5.0294 -17.04,9.3801 -8.448,4.3508 -15.4896,8.456 -15.648,9.1227 -0.5706,2.4023 2.7583,14.2033 5.9636,21.1408 5.7376,12.4181 16.9285,21.6378 27.942,23.0202 12.0913,1.5176 18.0741,2.0259 21.8347,1.8551 2.2372,-0.1016 7.1223,-0.2998 10.8556,-0.4404 3.7334,-0.1406 10.6454,-1.0359 15.36,-1.9897 4.7147,-0.9537 10.2579,-2.0003 12.3183,-2.3256 9.0606,-1.4308 23.8342,-9.3422 26.3118,-14.0903 0.669,-1.2821 1.33,-8.0309 1.5794,-16.1249 0.4453,-14.4516 0.6216,-15.9666 2.5462,-21.8816 4.4201,-13.5842 8.3753,-22.7143 11.9385,-27.5584 1.1651,-1.584 2.905,-4.5749 3.8664,-6.6463 2.9057,-6.2605 14.2668,-16.6768 22.4915,-20.621 6.4859,-3.1103 7.8982,-3.4313 14.2406,-3.2371 5.8075,0.1779 7.9128,0.7148 12.0213,3.0653 6.6068,3.7801 8.5898,6.0446 12.2762,14.0186 2.951,6.3834 3.1005,7.2683 3.1597,18.7005 0.043,8.3322 -0.3287,12.6859 -1.2167,14.2442 -0.7033,1.2343 -1.4774,3.3393 -1.7201,4.6779 -0.2427,1.3385 -1.5033,5.0471 -2.8012,8.2413 -1.2979,3.1942 -2.3598,6.2182 -2.3598,6.7202 0,0.5019 -1.944,3.6368 -4.32,6.9665 -2.376,3.3296 -4.32,6.3738 -4.32,6.7648 0,0.391 -2.268,2.9401 -5.04,5.6648 -2.772,2.7246 -6.0449,6.3233 -7.273,7.9971 -1.2282,1.6737 -2.7729,3.0432 -3.4327,3.0432 -0.6598,0 -2.247,1.1317 -3.527,2.5148 -2.6073,2.8174 -7.6365,6.3582 -14.2291,10.0178 -8.6028,4.7755 -10.6462,6.2014 -10.6522,7.4331 -0,0.6851 2.103,3.3548 4.6808,5.9325 5.7276,5.7277 9.8058,7.0399 22.1932,7.141 10.0311,0.082 15.0082,-0.597 18.9823,-2.5895 13.0749,-6.5553 19.5106,-11.0969 24.7012,-17.4314 l 3.5635,-4.3488 -2.1513,-3.6148 c -4.2245,-7.098 -5.8598,-18.7915 -3.5261,-25.2147 1.6743,-4.6084 4.4118,-9.6 5.2648,-9.6 0.3879,0 1.7808,-0.972 3.0954,-2.16 4.7483,-4.291 13.9895,-9.0925 19.5903,-10.1786 6.9801,-1.3535 8.2399,-1.372 8.2399,-0.1211 0,0.7778 8.8276,12.3148 19.7175,25.7692 0.6991,0.8638 6.1468,7.6185 12.106,15.0105 5.9593,7.392 11.2808,13.9116 11.8257,14.4879 0.5449,0.5764 2.0708,2.4692 3.3908,4.2061 4.1407,5.4487 8.0358,9.9957 11.2742,13.1615 1.7192,1.6805 3.1258,3.2575 3.1258,3.5042 0,0.4058 -5.2429,1.8153 -11.52,3.0971 -1.32,0.2696 -5.856,0.5147 -10.08,0.5448 -6.4982,0.046 -11.4633,-0.6132 -26.792,-3.558 -5.2787,-1.0141 -21.9997,-7.8315 -26.2134,-10.6876 l -3.1336,-2.1239 -2.6505,2.468 c -4.9661,4.6241 -13.2557,10.5555 -18.9989,13.5944 -6.1106,3.2333 -17.6059,7.7481 -21.5716,8.4724 -3.8292,0.6994 -18.5346,1.2457 -20.64,0.7668 z m -33.691,-60.7795 c 1.4147,-2.5303 8.1147,-8.6461 12.4135,-11.3311 6.202,-3.8737 23.3753,-21.1576 28.4399,-28.6231 5.7058,-8.4105 10.346,-18.0241 11.1312,-23.0614 0.5262,-3.3763 0.2608,-4.2024 -2.1131,-6.5763 -2.4948,-2.4948 -3.1596,-2.6775 -8.1968,-2.253 -11.6161,0.9789 -23.568,9.1516 -32.0565,21.9202 -9.8113,14.7583 -15.0586,30.7139 -14.6752,44.6237 0.2117,7.6814 0.3214,8.053 2.2054,7.4694 1.0904,-0.3378 2.3736,-1.3136 2.8516,-2.1684 z M 871.06714,1498.08 c -0.30392,-0.792 -0.72236,-1.44 -0.92987,-1.44 -0.20751,0 -0.37729,0.648 -0.37729,1.44 0,0.792 0.41844,1.44 0.92987,1.44 0.51143,0 0.68121,-0.648 0.37729,-1.44 z m 428.58486,-23.52 c 3.8203,-2.64 7.2941,-4.8 7.7196,-4.8 0.4255,0 1.821,-1.1232 3.101,-2.496 2.5734,-2.7598 20.2164,-15.7047 24.5423,-18.007 1.5098,-0.8035 4.6891,-3.929 7.0651,-6.9456 2.376,-3.0165 5.3876,-6.6066 6.6925,-7.978 4.7531,-4.9955 13.8765,-16.8251 18.5816,-24.0934 5.5751,-8.6123 14.3362,-33.9897 12.4021,-35.9238 -0.3969,-0.3969 -8.8416,3.7404 -13.1366,6.4361 -4.2636,2.676 -20.7777,17.1898 -28.1416,24.7329 -17.3221,17.7437 -29.0699,34.4616 -40.9405,58.2611 -6.0201,12.0699 -7.2876,15.6137 -5.5845,15.6137 0.4142,0 3.8788,-2.16 7.699,-4.8 z m -177.5944,-6.5175 c 17.1643,-15.2279 56.0814,-54.0794 79.3824,-79.2487 4.752,-5.133 12.096,-12.9551 16.32,-17.3825 11.5544,-12.1106 23.3736,-26.5187 28.1691,-34.3392 1.2033,-1.9624 3.2518,-4.7805 4.5521,-6.2624 2.467,-2.8114 7.5643,-10.6399 10.9451,-16.8097 1.085,-1.98 2.3387,-3.6 2.7861,-3.6 0.4474,0 3.3381,-5.076 6.4238,-11.28 3.0857,-6.204 6.3828,-12.3103 7.327,-13.5695 2.2114,-2.9491 2.2297,-5.8714 0.037,-5.8676 -2.229,0 -20.0537,9.1374 -33.0056,16.9122 -2.9731,1.7847 -5.7852,3.2449 -6.2491,3.2449 -0.4639,0 -1.3408,0.7964 -1.9487,1.7698 -0.6079,0.9733 -3.6278,3.4205 -6.711,5.438 -3.0831,2.0176 -8.1976,5.8751 -11.3656,8.5723 -6.7166,5.7183 -12.5018,10.0835 -13.616,10.2738 -0.4312,0.074 -7.912,7.5256 -16.624,16.56 -22.0385,22.8539 -36.4066,40.4251 -45.0639,55.1101 -2.0869,3.5398 -5.4309,9.028 -7.4313,12.196 -4.047,6.4095 -11.8138,22.3574 -11.8205,24.2719 -0,0.6775 -1.1363,3.4657 -2.5197,6.1958 -3.1137,6.1446 -8.0446,25.3178 -8.0446,31.2804 0,4.2139 0.08,4.3436 1.68,2.7401 0.924,-0.9258 3.9739,-3.7184 6.7776,-6.2057 z m -205.40945,-35.7579 c 1.4035,-1.0754 6.00783,-4.6394 10.23183,-7.92 4.224,-3.2805 8.83988,-6.7122 10.25752,-7.6258 1.41764,-0.9137 6.81764,-5.236 12,-9.6051 5.18236,-4.3692 12.23048,-10.1336 15.66248,-12.8099 3.432,-2.6762 7.752,-6.2515 9.6,-7.945 1.848,-1.6935 6.96064,-5.9816 11.36142,-9.529 8.79469,-7.0893 24.9157,-20.9306 29.4386,-25.2756 1.584,-1.5218 8.7034,-8.2765 15.821,-15.0105 39.1973,-37.0851 64.7898,-65.5979 73.8923,-82.3237 2.2988,-4.224 5.1505,-8.976 6.3371,-10.56 4.0206,-5.367 15.7896,-27.409 15.7896,-29.5721 0,-0.8355 0.8677,-2.1268 1.9282,-2.8696 1.0605,-0.7428 3.0266,-4.5473 4.3692,-8.4545 1.3425,-3.9071 3.0262,-8.3998 3.7414,-9.9838 3.8571,-8.5421 7.9959,-23.9934 9.6125,-35.8863 l 0.5718,-4.2063 -3.1516,0.6095 c -1.7333,0.3353 -5.7435,1.8635 -8.9115,3.396 -3.168,1.5326 -8.028,3.4839 -10.8,4.3363 -2.772,0.8524 -6.444,2.3929 -8.16,3.4235 -1.716,1.0305 -4.416,2.5929 -6,3.472 -10.2268,5.6756 -28.9342,23.6739 -48.1447,46.3198 -7.2883,8.5916 -10.6154,12.618 -12.8153,15.5087 -3.4435,4.5247 -12.7299,15.7399 -13.5024,16.3068 -0.3597,0.264 -1.8189,2.208 -3.2427,4.32 -1.4237,2.112 -5.5647,7.512 -9.2022,12 -12.2315,15.0913 -14.8393,18.3323 -18.0038,22.3747 -1.7332,2.2139 -4.0859,5.1053 -5.2283,6.4253 -1.14242,1.32 -3.41389,4.344 -5.04771,6.72 -1.63382,2.376 -6.1931,8.64 -10.13175,13.9201 -6.17892,8.2834 -11.76547,16.2899 -27.58717,39.5373 -6.74633,9.9126 -12.56847,19.2255 -19.99454,31.9826 -3.53461,6.072 -7.2146,12.336 -8.17776,13.92 -2.46498,4.0538 -6.2865,12.2082 -9.67291,20.64 -1.59043,3.96 -3.67802,8.064 -4.63907,9.12 -2.24214,2.4636 -3.49571,7.2 -1.90562,7.2 0.63373,0 2.30057,-0.8799 3.70408,-1.9554 z M 768.98256,1329.2095 c 14.16612,-2.5299 29.2614,-6.8262 45.57742,-12.9718 12.39075,-4.6672 31.61096,-13.1261 35.04,-15.4213 1.32,-0.8835 5.424,-3.2479 9.12,-5.2541 7.7363,-4.1993 28.16403,-16.9673 33.12,-20.7011 1.848,-1.3923 7.032,-5.0407 11.52,-8.1077 4.488,-3.067 9.91726,-7.1372 12.06503,-9.0449 2.14777,-1.9078 6.68377,-5.8317 10.08,-8.7199 9.93775,-8.4513 35.22697,-34.2821 44.35292,-45.3028 4.62988,-5.5911 10.82947,-13.7837 13.77687,-18.2058 2.9474,-4.4221 6.01637,-8.7808 6.81994,-9.686 1.41993,-1.5996 3.26539,-4.8756 12.32216,-21.8741 2.3912,-4.488 4.967,-9.24 5.724,-10.56 1.8292,-3.1899 13.8991,-28.7469 13.8991,-29.4304 0,-0.2943 1.3561,-3.3767 3.0136,-6.8497 1.6576,-3.473 3.6016,-8.3948 4.32,-10.9373 0.7185,-2.5424 1.9918,-6.8906 2.8295,-9.6626 3.6421,-12.0516 7.3082,-33.36 5.7396,-33.36 -1.6446,0 -14.2927,3.0253 -15.6505,3.7435 -0.9307,0.4923 -3.3122,1.5794 -5.2922,2.4158 -8.0569,3.4033 -10.9857,4.8777 -14.813,7.4566 -2.2071,1.4872 -4.28795,2.7041 -4.62404,2.7041 -0.3361,0 -2.02704,1.08 -3.75765,2.4 -1.73061,1.32 -3.62432,2.4 -4.20824,2.4 -0.58393,0 -1.40715,0.54 -1.82939,1.2 -0.42224,0.66 -3.1437,2.806 -6.0477,4.769 -2.904,1.9629 -6.37407,4.5549 -7.71126,5.76 -3.30569,2.979 -10.80669,9.0175 -17.56187,14.1378 -3.07622,2.3317 -9.16483,7.5096 -13.53024,11.5063 -4.36541,3.9968 -9.4085,8.4889 -11.20687,9.9824 -12.57305,10.4421 -71.33214,68.3985 -76.54413,75.4985 -1.36705,1.8623 -4.66356,5.7792 -7.32559,8.7043 -4.66374,5.1245 -12.82324,14.6857 -23.72607,27.8017 -6.32325,7.6068 -15.83293,19.7693 -22.72098,29.0592 -2.81986,3.8032 -6.70786,8.6572 -8.64,10.7868 -1.93214,2.1296 -5.45699,6.6262 -7.83299,9.9925 -2.376,3.3663 -5.81335,8.1098 -7.63856,10.541 -17.37639,23.146 -25.96144,35.2869 -25.96144,36.7144 0,1.292 3.37946,1.0021 17.30258,-1.4844 z m -84.12155,-132.1199 c 12.35006,-4.2661 34.97984,-13.4057 50.50417,-20.3974 16.36888,-7.3721 52.48969,-31.3017 67.07417,-44.4358 2.97035,-2.675 11.26786,-9.241 18.43891,-14.5911 13.36752,-9.9732 27.62613,-23.2402 35.69159,-33.2095 6.85826,-8.4772 6.80421,-8.5289 -8.16987,-7.8185 -16.35119,0.7758 -24.63787,1.9495 -37.68,5.3371 -27.58078,7.1639 -53.03623,21.9324 -83.55841,48.4782 -16.96631,14.7559 -29.40511,26.8755 -32.72988,31.89 -2.00471,3.0236 -5.23197,7.2254 -7.17169,9.3374 -3.14977,3.4295 -8.85628,12.2789 -16.5597,25.68 -1.97465,3.4351 -2.27611,4.56 -1.2221,4.56 0.76953,0 7.6918,-2.1737 15.38281,-4.8304 z M 902.87998,974.87799 c 9.68093,-1.73899 28.17376,-5.87377 30.83106,-6.89347 4.01047,-1.53896 -4.97814,-2.41082 -30.01736,-2.91155 -27.67894,-0.55352 -36.49091,0.12721 -48.1123,3.71669 -5.61823,1.73529 -6.09004,2.07311 -4.75708,3.40607 0.81385,0.81385 3.78731,2.30818 6.6077,3.32074 4.51215,1.61992 7.03026,1.78532 20.96798,1.37726 8.712,-0.25506 19.728,-1.16214 24.48,-2.01574 z m -60.77223,-21.58073 c 3.8692,-8.65426 10.81019,-16.28789 25.25223,-27.77215 27.99135,-22.25864 57.32383,-39.3655 105.12,-61.30657 107.95322,-49.55644 204.42142,-78.69192 300.96002,-90.89642 24.1384,-3.0516 48.1836,-4.40907 78.6169,-4.43833 l 30.6169,-0.0294 13.0973,-9.98952 c 52.6551,-40.16115 91.7687,-82.23359 119.5489,-128.59253 9.3941,-15.67655 27.8478,-50.8124 35.5848,-67.75318 7.9165,-17.33382 16.8387,-42.40636 19.7997,-55.63914 1.8974,-8.47963 2.2555,-12.74729 2.2555,-26.88 0,-15.94818 -0.1413,-17.23101 -2.7862,-25.30066 -4.5271,-13.81256 -12.8315,-24.94173 -23.9455,-32.09061 -14.2248,-9.14987 -44.4136,-13.44729 -87.3259,-12.43099 -53.5072,1.26722 -103.1807,13.9732 -166.2624,42.52828 -19.0001,8.60071 -54.1767,27.01372 -68.64,35.92925 -2.376,1.46462 -13.8094,8.39471 -25.4075,15.4002 -11.5981,7.00548 -26.0701,15.97642 -32.16,19.93542 -6.0899,3.959 -14.0965,9.15025 -17.7925,11.53612 -6.289,4.0597 -24.6967,16.11148 -50.4,32.99767 -19.1397,12.5741 -35.5977,22.71453 -84.96,52.34724 -63.44411,38.08615 -147.82654,89.0018 -157.44002,94.99795 -4.224,2.63461 -16.752,10.41385 -27.84,17.28719 -46.14497,28.60482 -88.33981,56.55944 -111.36,73.77743 -18.99207,14.20515 -26.64811,21.33227 -29.65084,27.60239 -2.71203,5.66309 -3.98364,13.99678 -3.01267,19.74392 0.74325,4.39928 5.5017,12.14393 8.42156,13.70659 1.69232,0.9057 2.44473,0.45983 5.75061,-3.40772 4.76354,-5.57286 8.02493,-7.27968 13.91006,-7.27968 7.46325,0 10.81307,3.40093 11.74484,11.92402 0.46304,4.2355 0.81427,4.81301 3.39644,5.5846 20.09176,6.00368 31.74769,10.96078 45.56254,19.37706 24.08243,14.6715 39.81705,29.88926 56.23782,54.39048 9.74535,14.54093 9.30442,14.05852 10.33535,11.30761 0.46661,-1.24507 1.71403,-4.19999 2.77206,-6.56649 z m 287.85395,7.16864 c 73.7331,-3.79138 143.7325,-13.07124 207.3183,-27.48432 70.4585,-15.97092 100.8865,-24.92102 124.32,-36.56757 14.093,-7.00428 22.0475,-12.55719 31.2077,-21.78554 12.9386,-13.03488 16.9331,-22.71575 16.148,-39.13599 -0.5493,-11.48876 -3.2311,-17.00226 -12.5982,-25.90006 -11.0985,-10.54253 -27.3492,-17.97605 -52.0375,-23.80353 -13.2652,-3.13111 -35.2526,-6.27029 -48.6732,-6.94912 l -11.2332,-0.5682 -12.7668,8.65234 c -16.912,11.46161 -40.0006,25.40871 -64.1268,38.73701 -33.2948,18.39341 -94.0548,47.40437 -131.7001,62.88268 -5.973,2.45584 -20.3639,8.47558 -31.9799,13.37721 -51.5383,21.74772 -107.7787,43.73561 -137.76,53.85899 l -13.92002,4.70018 6.72,0.55048 c 15.22712,1.24734 103.21432,0.86839 131.08172,-0.56456 z m -269.32172,-1.97238 c 10.32255,-2.42498 48.86788,-2.96115 71.5748,-0.99561 31.59546,2.73494 31.98588,2.69599 57.80591,-5.7665 33.54861,-10.99552 54.53291,-18.81212 101.01931,-37.62932 110.4637,-44.7146 160.6459,-67.47974 213.6,-96.8996 26.9889,-14.99435 61.3367,-36.14549 62.9584,-38.76934 0.8442,-1.36607 -46.7589,-0.92268 -64.3984,0.59982 -93.1447,8.03948 -179.7557,30.89032 -289.92,76.49045 -20.15591,8.34309 -63.4491,28.60707 -78.0532,36.53388 -30.69733,16.66188 -56.41009,34.24832 -72.54131,49.61517 -6.44004,6.13489 -14.04551,15.92126 -14.04551,18.07312 0,1.5776 -0.0814,1.58609 12,-1.25207 z M 714.88139,870.16554 c 0.31963,-0.83294 -0.11914,-2.21472 -0.97504,-3.07063 -1.95639,-1.95638 -5.97629,-0.7489 -8.0734,2.42507 -1.41737,2.1452 -1.39324,2.16 3.52007,2.16 3.62002,0 5.10313,-0.40628 5.52837,-1.51444 z m -288.24764,-6.98601 c 0.86542,-1.40029 -3.67741,-4.88072 -7.15991,-5.48547 l -3.31385,-0.57546 3.5859,3.44069 c 3.5073,3.36527 5.87155,4.26466 6.88786,2.62024 z M 640.79999,633.44575 c 5.28,-1.52224 15.39638,-3.83865 22.48084,-5.14758 7.08447,-1.30894 13.13179,-2.63082 13.43849,-2.93752 1.76854,-1.76854 -8.7298,-5.20066 -15.90802,-5.20066 -4.6741,0 -14.16152,2.55831 -19.46277,5.24819 -4.24288,2.15285 -12.85235,8.32659 -18.78854,13.47301 l -2.88,2.49684 5.76,-2.58229 c 3.168,-1.42026 10.08,-3.82775 15.36,-5.34999 z"
       id="path2" />
  </g>
</svg>