<?xml version="1.0" encoding="UTF-8" standalone="no"?>
<svg
   version="1.1"
   id="svg1"
   width="200"
   height="200"
   viewBox="200 350 1766 1666"
   sodipodi:docname="workerbee-logo.svg"
   inkscape:version="1.4 (e7c3feb100, 2024-10-09)"
   xmlns:inkscape="http://www.inkscape.org/namespaces/inkscape"
   xmlns:sodipodi="http://sodipodi.sourceforge.net/DTD/sodipodi-0.dtd"
   xmlns="http://www.w3.org/2000/svg"
   xmlns:svg="http://www.w3.org/2000/svg">
  <defs
     id="defs1" />
  <sodipodi:namedview
     id="namedview1"
     pagecolor="#ffffff"
     bordercolor="#000000"
     borderopacity="0.25"
     inkscape:showpageshadow="2"
     inkscape:pageopacity="0.0"
     inkscape:pagecheckerboard="0"
     inkscape:deskcolor="#d1d1d1"
     showgrid="false"
     inkscape:zoom="0.67882251"
     inkscape:cx="125.9534"
     inkscape:cy="125.21683"
     inkscape:window-width="2560"
     inkscape:window-height="1378"
     inkscape:window-x="1080"
     inkscape:window-y="380"
     inkscape:window-maximized="1"
     inkscape:current-layer="layer1" />
  <g
     inkscape:groupmode="layer"
     id="layer1"
     inkscape:label="Image 1">
    <path
       style="fill:#000000;stroke-width:1.20877"
       d="m 1699.0064,1925.353 c -1.2184,-0.3041 -4.9571,-1.186 -8.3079,-1.96 -10.659,-2.4619 -23.6648,-10.6751 -31.6395,-19.9808 l -4.5,-5.251 -8.7928,3.6279 c -9.663,3.9872 -22.1047,7.8612 -28.7316,8.9465 -1.2186,0.1995 -4.2094,0.706 -6.6464,1.1256 -2.437,0.4196 -6.674,1.1422 -9.4157,1.606 -6.6526,1.1252 -39.8338,1.1676 -48.1861,0.062 -8.8571,-1.1728 -10.439,-1.4847 -22.7085,-4.477 -5.7879,-1.4115 -12.0188,-2.8768 -13.8466,-3.256 -14.247,-2.9563 -22.8045,-9.2584 -33.6879,-24.8095 -3.4042,-4.8641 -7.3968,-16.9098 -9.0426,-27.2805 -0.7702,-4.8541 -1.9168,-8.3432 -2.8741,-8.7464 -0.8759,-0.3689 -5.9275,1.3865 -11.2257,3.9009 -5.2985,2.5142 -13.1228,5.8889 -17.3875,7.4991 -4.2647,1.6103 -8.7511,3.4423 -9.9695,4.0712 -1.2185,0.6288 -4.4587,1.7412 -7.2003,2.4716 -31.9348,8.5096 -56.3883,9.3073 -75.3255,2.4571 -9.2011,-3.3284 -13.2629,-5.311 -26.5855,-12.9763 -4.7201,-2.7159 -16.1977,-14.1311 -21.5769,-21.4598 -2.8216,-3.8443 -5.6134,-6.9897 -6.2039,-6.9897 -1.1038,0 -8.4844,5.3481 -15.5252,11.2499 -2.1899,1.8355 -4.2769,3.3374 -4.6379,3.3374 -0.3608,0 -3.8031,2.335 -7.6494,5.189 -41.34,30.6731 -91.1873,58.6063 -113.3352,63.5103 -2.4371,0.5395 -4.9294,1.1059 -5.5387,1.2585 -11.9619,2.9968 -30.1113,3.7935 -40.5826,1.7817 -4.2582,-0.8181 -11.8964,-3.9377 -19.2901,-7.8785 -10.4884,-5.5901 -13.263,-7.7247 -19.3853,-14.9142 -7.1929,-8.4469 -9.4207,-12.275 -17.519,-30.1048 -6.5759,-14.4783 -8.7009,-22.9238 -13.5125,-53.7056 -1.6219,-10.3764 -2.3007,-11.8251 -5.0859,-10.8549 -2.1365,0.744 -13.1071,8.0832 -15.5667,10.4138 -0.7359,0.6972 -1.6559,1.2676 -2.0445,1.2676 -0.3886,0 -2.2671,1.2308 -4.1745,2.7351 -5.6003,4.4167 -34.91792,20.987 -53.36822,30.1634 -19.81297,9.8542 -57.33734,14.8132 -78.27434,10.3441 -9.62754,-2.0552 -22.17598,-7.5677 -29.0631,-12.7676 -2.71826,-2.0524 -5.41757,-3.7315 -5.99847,-3.7315 -1.2293,0 -6.23346,-6.0461 -14.05285,-16.9785 -15.34203,-21.4502 -21.25393,-43.0962 -22.25357,-81.4794 -0.64432,-24.74 2.69127,-46.7956 11.22307,-74.2091 5.83731,-18.7559 10.2558,-30.968 12.73682,-35.2028 1.78617,-3.0487 3.51862,-7.7047 4.29694,-11.5482 0.73507,-3.63 0.69224,-3.6671 -9.27875,-8.0096 -11.73694,-5.1119 -18.69934,-8.8628 -23.30999,-12.558 -1.82776,-1.4648 -5.56634,-4.1192 -8.30796,-5.8987 -2.74164,-1.7795 -8.97259,-7.3498 -13.84659,-12.3785 -4.87402,-5.0287 -9.21955,-9.1496 -9.65675,-9.1574 -1.53777,-0.028 -9.58173,-12.893 -14.54677,-23.2653 -7.7062,-16.0986 -8.77589,-21.9625 -9.50455,-52.1031 -0.70681,-29.2359 -0.41905,-28.3973 -8.84639,-25.781 -11.78371,3.6584 -49.79159,10.172 -72.09543,12.3555 -25.65085,2.5109 -67.99557,0.9808 -86.312,-3.1191 -26.35907,-5.9001 -52.35995,-20.8021 -63.03495,-36.1273 -5.61811,-8.0654 -12.57099,-23.3554 -15.88209,-34.9263 -2.38095,-8.3203 -2.5918,-11.1832 -2.5918,-35.1927 0,-29.0696 -0.13325,-28.2577 9.13159,-55.635 2.77552,-8.2016 4.74721,-15.2404 4.38152,-15.6417 -0.3657,-0.4013 -9.53748,2.589 -20.38173,6.645 -23.41041,8.7562 -45.62928,15.166 -61.58192,17.7654 -17.26318,2.813 -50.33498,2.5472 -63.92299,-0.5139 -44.32742,-9.986 -67.69406,-52.63 -64.9597,-118.5508 1.18218,-28.5009 6.81489,-53.8617 17.34361,-78.0884 24.25142,-55.8027 63.89656,-106.8359 106.75888,-137.42524 11.92885,-8.51323 32.5018,-19.36307 43.11823,-22.73981 3.54339,-1.12697 6.68662,-2.74728 6.98497,-3.60049 0.29836,-0.85321 -0.44372,-4.76976 -1.64906,-8.70357 -3.69943,-12.07357 -7.7807,-31.0956 -11.51448,-53.66682 -3.49077,-21.10222 -3.56578,-22.30791 -3.53475,-56.81253 0.0274,-30.48224 0.37054,-37.638 2.53556,-52.87913 5.9045,-41.56577 14.52815,-72.95431 28.32701,-103.10538 8.04715,-17.58332 15.73231,-29.24697 27.95793,-42.4313 10.05628,-10.84487 12.96565,-13.20931 22.84991,-18.56998 14.55812,-7.89554 23.9824,-10.11284 40.12732,-9.44097 9.66714,0.4023 13.13619,1.04622 16.78814,3.1162 8.62666,4.88972 12.15219,12.8821 11.10597,25.17711 -2.27828,26.77349 -29.39515,62.55203 -60.09345,79.2885 -9.81484,5.35095 -16.50328,7.00865 -28.27853,7.00865 -11.86674,0 -14.63301,-1.29378 -14.07287,-6.58182 0.33014,-3.11664 0.43546,-3.14923 12.51795,-3.87365 9.72464,-0.58307 13.75071,-1.41942 19.93911,-4.14206 21.26483,-9.35563 46.33253,-35.48757 56.24023,-58.62789 2.77748,-6.48707 3.52576,-9.84652 3.54841,-15.9309 0.0263,-7.06622 -0.23932,-7.94501 -3.17969,-10.52024 -3.94963,-3.45911 -7.39409,-4.25828 -18.35359,-4.25828 -9.44256,0 -22.65297,3.22866 -30.13469,7.36501 -12.90395,7.13407 -28.3299,23.39098 -39.62356,41.75796 -15.71966,25.56504 -28.96216,67.68624 -35.57678,113.16123 -2.95701,20.32912 -4.17192,67.07414 -2.22739,85.70066 2.90637,27.8399 13.72977,78.95398 17.91689,84.61345 0.54691,0.73924 4.21247,1.67386 8.14571,2.07692 13.60732,1.39441 20.53603,7.66861 20.53603,18.59595 0,7.63393 -1.9321,9.70086 -10.23513,10.94977 -8.33954,1.25436 -15.40711,-3.49527 -23.14122,-15.55175 l -1.80611,-2.81553 -9.82503,3.47994 c -26.54974,9.40392 -53.88122,29.38299 -81.10279,59.28569 -23.40303,25.708 -45.80533,59.1766 -59.66676,89.1411 -23.57264,50.9573 -25.53622,120.0208 -4.4033,154.8733 4.58646,7.564 16.0392,19.854 22.18407,23.8059 27.74022,17.84 83.99091,14.1439 141.41079,-9.2918 16.40136,-6.6942 58.41222,-27.8601 63.69438,-32.0904 1.82775,-1.4638 5.38089,-3.7951 7.89587,-5.1806 8.27758,-4.5601 32.82487,-23.3161 48.04441,-36.7096 15.16599,-13.3463 37.55579,-37.3292 49.31849,-52.8277 19.05745,-25.1097 34.09719,-57.9735 38.68983,-84.5418 1.97691,-11.4364 2.26967,-36.1911 0.55376,-46.8249 -1.36398,-8.4528 -6.04747,-24.8056 -8.87886,-31.0013 -2.20553,-4.82619 -7.53555,-10.17779 -16.23369,-16.29941 l -5.78348,-4.07027 -0.59992,3.84475 c -0.32996,2.11466 -1.32449,9.325 -2.21006,16.02303 -7.7242,58.4213 -28.18228,100.5978 -59.9285,123.5494 -27.66135,19.9981 -63.02754,30.1916 -80.08001,23.0811 -8.47424,-3.5336 -13.02463,-8.0749 -17.02798,-16.9942 -3.43414,-7.651 -3.62631,-8.8193 -3.99588,-24.294 -0.32115,-13.447 0.0288,-18.2372 2.02507,-27.7174 7.95206,-37.7641 31.32952,-77.1085 59.10451,-99.47312 10.06075,-8.10106 28.03564,-17.76885 38.40035,-20.65378 11.1995,-3.11715 29.7023,-3.74724 41.81723,-1.42377 5.63585,1.08075 10.62062,1.96523 11.07728,1.96536 0.45668,1.3e-4 0.6562,-11.10164 0.4434,-24.67067 -0.31549,-20.11699 0.0553,-28.36332 2.00874,-44.67402 1.31761,-11.00168 2.81484,-22.19116 3.3272,-24.8655 0.51235,-2.67435 1.25086,-10.33271 1.64112,-17.01857 3.46334,-59.33208 11.57932,-93.00192 29.603,-122.81059 19.41909,-32.1165 38.81263,-51.4417 63.11794,-62.89559 7.51407,-3.541 9.07354,-3.83267 20.32357,-3.80118 13.42182,0.0376 19.45426,1.93199 28.92703,9.08417 4.52551,3.41688 4.85867,4.04376 4.85867,9.14231 0,5.03337 -0.28972,5.60409 -3.60011,7.09185 -1.98006,0.8899 -11.07729,3.06913 -20.21603,4.84275 -51.49015,9.99306 -65.6993,20.58717 -82.47168,61.4895 -9.36305,22.8334 -21.90037,65.75609 -28.24618,96.70341 -2.39849,11.69705 -2.97397,19.24131 -4.45093,58.34938 -0.93295,24.70347 -1.69633,48.31748 -1.69642,52.47563 l -1.3e-4,7.56021 6.36943,4.44497 c 3.5032,2.44477 8.66149,6.78197 11.46289,9.6383 4.28594,4.36987 6.4812,5.55016 13.84661,7.44461 7.63643,1.96409 13.6288,2.24939 46.96978,2.23635 21.01914,-0.0127 41.48295,-0.45042 45.47513,-0.98275 l 7.2585,-0.9678 -3.59018,-7.82817 c -1.97463,-4.30543 -3.93688,-10.36488 -4.36056,-13.46557 -1.25363,-9.17382 1.05768,-22.77115 5.57606,-32.80388 3.47615,-7.71848 5.46217,-10.26482 14.87679,-19.07383 16.63584,-15.56574 44.67506,-37.37829 83.19984,-64.72366 6.39713,-4.54076 16.61593,-11.8065 22.70844,-16.1461 16.21443,-11.54927 35.89382,-25.07184 73.19296,-50.29403 33.16135,-22.42415 52.20805,-35.05517 168.29185,-111.60453 76.7479,-50.61002 92.9144,-61.5764 125.7272,-85.28601 14.3174,-10.34535 29.5209,-21.28577 33.7856,-24.31205 13.0476,-9.25854 30.555,-21.69721 39.8783,-28.33257 12.9536,-9.21913 67.9746,-45.3809 80.8642,-53.14685 80.7305,-48.64009 145.5818,-74.40034 214.3385,-85.13966 14.9358,-2.33287 21.8734,-2.67867 53.1779,-2.65062 48.9779,0.0439 69.767,3.26945 89.172,13.8357 12.6596,6.89324 19.1257,12.79101 25.5939,23.34422 11.4328,18.653 15.9487,36.05922 15.9415,61.44478 -0.012,39.40542 -11.4786,78.36484 -42.3254,143.79738 -28.7351,60.95342 -44.7448,88.29673 -72.974,124.63325 -19.8998,25.61496 -59.9305,66.55436 -86.6109,88.5767 l -11.9392,9.85486 4.739,0.78563 c 2.6065,0.43209 11.2193,1.70388 19.1396,2.82622 60.1667,8.52584 98.4559,28.30899 111.0411,57.37243 3.7693,8.70455 4.1594,10.59742 4.5483,22.06803 0.2361,6.9671 -0.1688,15.86041 -0.9106,19.99792 -1.642,9.15963 -8.1568,23.46094 -14.9564,32.83306 -14.9123,20.55389 -50.2752,41.52029 -93.6299,55.51269 -26.9625,8.702 -105.7904,29.4662 -131.8197,34.723 -69.3256,14.0006 -129.6927,22.1316 -194.4062,26.1849 -34.929,2.1878 -92.8215,3.0574 -136.2507,2.0465 -76.2866,-1.7756 -63.8602,-2.5645 -93.603,5.9424 -33.6149,9.6145 -49.6215,12.6788 -70.471,13.4911 -17.5631,0.6841 -30.72587,-1.2248 -35.43822,-5.1398 -1.1525,-0.9574 -4.59881,-1.7573 -7.66341,-1.7786 -7.347,-0.051 -9.9617,-2.2733 -12.07922,-10.2668 -1.91457,-7.2271 -13.9361,-28.0599 -23.91037,-41.4353 -12.20446,-16.3661 -32.84587,-36.3428 -49.27508,-47.688 -13.60425,-9.3945 -33.32654,-18.4037 -51.48153,-23.5168 -9.2889,-2.61605 -10.03042,-2.63454 -70.34075,-1.7517 -45.15647,0.66099 -63.20221,0.51727 -69.63227,-0.55462 -4.77366,-0.79572 -8.85503,-1.25411 -9.0697,-1.01859 -0.21468,0.23566 1.05427,4.90821 2.81986,10.38351 5.37432,16.6663 6.90579,28.7074 6.37456,50.1199 -0.72788,29.3387 -6.62392,50.8786 -21.99174,80.3426 -21.43599,41.0981 -54.88419,77.1176 -106.8119,115.0229 -24.5545,17.9238 -34.95875,24.6559 -41.8836,27.1006 -4.94647,1.7464 -5.35785,2.5823 -15.0073,30.4957 -9.41301,27.2294 -11.2362,36.0911 -11.22574,54.5622 0.0118,20.8563 2.51425,32.4595 8.4473,39.1678 11.81752,13.3621 27.71539,22.1795 50.72896,28.1356 9.22441,2.3874 13.13551,2.602 47.71087,2.6191 41.18472,0.02 51.37747,-1.0382 87.66977,-9.1047 8.93666,-1.9863 17.88293,-3.6114 19.88058,-3.6114 3.74164,0 9.38207,-1.8911 10.40016,-3.4868 0.31703,-0.4969 3.81652,-2.1472 7.77665,-3.6673 10.34452,-3.9704 21.72557,-12.6853 24.57741,-18.8198 7.36453,-15.8416 25.85285,-44.8228 38.36291,-60.1356 28.8309,-35.2898 58.06979,-61.1546 89.92618,-79.549 18.78285,-10.8455 30.52107,-15.969 48.50205,-21.1705 15.11529,-4.3724 15.33277,-4.3975 42.8856,-4.9364 28.30647,-0.5538 34.16387,0 44.19947,4.1613 8.3577,3.4676 10.0185,6.7991 10.3923,20.8469 l 0.313,11.7666 -5.6088,11.2211 c -6.4289,12.8618 -19.7316,29.0925 -32.5178,39.6747 -4.3541,3.6036 -8.9133,7.7806 -10.13181,9.2821 -1.2185,1.5016 -5.79515,5.3881 -10.17021,8.6367 -4.37507,3.2486 -8.24774,6.4269 -8.6059,7.0628 -1.26269,2.2421 -35.19909,29.5364 -49.78695,40.0424 -18.21084,13.1153 -41.20824,26.1691 -63.81053,36.2202 -14.48315,6.4404 -68.39333,26.556 -91.38757,34.0996 -6.17516,2.0257 -6.75017,2.525 -8.11021,7.0428 -2.20832,7.3354 -1.34392,51.8538 1.12498,57.9389 3.61966,8.9215 20.22139,24.7134 36.1634,34.3993 19.57637,11.8941 24.17139,13.2954 52.23985,15.9319 l 8.30796,0.7804 3.04646,-5.293 c 6.39542,-11.1116 19.57543,-32.2113 22.59834,-36.1774 1.73588,-2.2776 6.147,-8.9349 9.8025,-14.7941 32.00403,-51.2976 68.1497,-101.3401 96.92629,-134.1914 36.9645,-42.1987 67.1941,-73.5828 96.0527,-99.7208 0.7383,-0.6686 3.48,-3.2512 6.0927,-5.739 18.4302,-17.5494 62.5226,-52.9793 71.768,-57.6684 0.9138,-0.4636 1.9108,-1.1672 2.2154,-1.5639 0.7137,-0.9291 13.6711,-7.8879 19.257,-10.3421 9.4857,-4.1674 33.0376,-9.2891 39.5684,-8.6045 5.2154,0.5466 12.3704,4.6099 15.29,8.6831 7.8733,10.9841 8.4308,39.8628 1.2634,65.446 -0.5717,2.0409 -1.8526,6.9929 -2.8464,11.0044 -0.9939,4.0115 -2.2407,8.3877 -2.7708,9.7249 -1.0227,2.5797 -3.667,9.9253 -7.8769,21.881 -1.4127,4.0115 -4.65,11.9434 -7.1942,17.6263 -2.5442,5.683 -8.2066,18.5121 -12.5831,28.5089 -4.3766,9.9969 -8.5885,18.7493 -9.36,19.4498 -0.7715,0.7005 -4.0165,6.7439 -7.2109,13.4297 -3.1945,6.686 -8.6779,16.5324 -12.1855,21.8811 -3.5075,5.3486 -6.9871,10.9971 -7.7325,12.552 -0.7454,1.555 -2.0873,3.743 -2.9818,4.8624 -0.8945,1.1196 -4.8795,6.4116 -8.8553,11.7603 -16.302,21.9306 -35.7924,44.0317 -49.7217,56.3817 -16.2863,14.4399 -44.51,36.8272 -52.6171,41.7365 -2.7416,1.6604 -8.6174,5.6026 -13.0573,8.7606 -14.7334,10.4798 -55.89876,32.4402 -77.77645,41.4912 -32.77173,13.5582 -54.07572,18.3922 -88.61827,20.1089 -14.31738,0.7115 -26.67567,1.515 -27.46285,1.7856 -0.78717,0.2706 -3.23768,4.7397 -5.44554,9.9314 -2.20786,5.1917 -4.69834,10.3262 -5.53438,11.41 -2.89871,3.7576 -9.2141,22.02 -13.75053,39.7629 -8.74578,34.2067 -10.1844,49.9879 -7.12748,78.1855 2.16484,19.969 4.37369,26.9258 10.39645,32.7434 6.60731,6.3825 17.27923,12.7172 24.00044,14.2463 18.63568,4.2395 42.10802,2.6925 62.69378,-4.1323 17.89589,-5.933 22.28758,-8.0273 47.5252,-22.6636 18.09791,-10.4958 44.12753,-29.0843 48.22413,-34.4382 2.3521,-3.0741 19.0028,-15.1114 20.903,-15.1114 1.8094,0 7.3062,-6.39 7.3062,-8.4935 0,-1.0785 0.4703,-2.4804 1.0452,-3.1155 0.5749,-0.6352 2.6133,-6.0781 4.5299,-12.0953 5.3531,-16.8057 29.8911,-69.6413 38.5169,-82.935 1.3706,-2.1122 3.2412,-5.6499 4.1569,-7.8616 0.9157,-2.2117 3.6727,-7.0299 6.1266,-10.7071 2.4538,-3.6772 5.7337,-9.421 7.2884,-12.7639 1.5547,-3.3429 5.4161,-9.9073 8.5806,-14.5873 3.1645,-4.6801 7.6886,-12.065 10.0537,-16.4108 2.3649,-4.3458 6.3776,-10.6366 8.9171,-13.9796 2.5394,-3.3429 6.4265,-9.0866 8.638,-12.7638 2.2114,-3.6772 6.5337,-10.2416 9.6052,-14.5874 10.4089,-14.7278 19.3691,-27.0075 21.1657,-29.0068 0.9842,-1.0953 3.0424,-4.1795 4.574,-6.8538 1.5315,-2.6743 6.085,-9.1994 10.1188,-14.5 4.0337,-5.3006 7.334,-10.0567 7.334,-10.5692 0,-0.5123 3.2704,-5.2014 7.2676,-10.4201 3.9969,-5.2186 8.8571,-11.5858 10.8003,-14.1492 7.1991,-9.4979 23.015,-27.8326 27.6002,-31.996 2.6035,-2.364 6.0556,-5.7503 7.6714,-7.525 1.6157,-1.7749 4.3574,-4.4146 6.0925,-5.8659 3.2461,-2.7152 9.1768,-7.95 13.1092,-11.5709 1.2268,-1.1294 3.3056,-3.0441 4.6195,-4.2546 1.314,-1.2106 3.4996,-3.0215 4.857,-4.0244 1.3574,-1.0029 5.0179,-4.0175 8.1344,-6.699 8.2088,-7.0634 19.1327,-15.1821 20.4276,-15.1821 0.6138,0 1.2825,-0.4319 1.4856,-0.9596 0.6559,-1.7049 11.2337,-8.2643 19.2005,-11.9063 6.7158,-3.0701 9.1633,-3.5448 18.2775,-3.5448 9.1151,0 11.0828,0.3817 14.7043,2.8525 4.7705,3.2548 7.2516,7.7676 7.9271,14.4186 1.6195,15.9469 1.9195,20.4467 1.9757,29.6301 0.084,13.7049 -1.9151,30.1049 -4.6554,38.1917 -0.4532,1.3372 -1.8251,5.4399 -3.0485,9.1171 -1.2235,3.6772 -4.1484,12.156 -6.5,18.8419 -2.3515,6.6858 -4.3059,12.4297 -4.3431,12.7639 -0.037,0.3344 -1.2687,3.0695 -2.7369,6.0781 -1.4681,3.0086 -2.7051,5.7438 -2.7491,6.0781 -0.4452,3.3875 -15.568,33.1311 -20.6861,40.6851 -3.6379,5.3695 -8.7704,13.3658 -11.4053,17.7695 -20.2378,33.8209 -74.8766,94.9604 -134.1832,150.1475 -20.0372,18.6456 -55.6301,49.652 -81.8768,71.3263 -7.9202,6.5405 -16.4584,13.6531 -18.9735,15.8058 -2.5152,2.1528 -8.4542,6.9228 -13.1975,10.6 -14.6091,11.3253 -14.0099,10.2402 -13.2586,24.0109 0.6497,11.9081 3.1392,29.8936 4.9212,35.5542 0.5262,1.6714 1.7908,6.1451 2.8102,9.9414 1.7207,6.4087 4.7837,11.9396 6.6122,11.9396 0.4281,0 2.9175,1.615 5.532,3.5891 6.2816,4.7429 15.1249,8.3712 22.7847,9.3484 6.7809,0.8653 25.6524,0.3694 33.2319,-0.8731 14.3465,-2.3518 45.6259,-15.372 59.8174,-24.8994 2.1323,-1.4315 7.3664,-4.6749 11.6311,-7.2074 4.2647,-2.5326 9.3409,-5.8969 11.2802,-7.4763 1.9394,-1.5795 3.7585,-2.8717 4.0423,-2.8717 0.2838,0 3.4325,-2.2208 6.9972,-4.9349 3.5647,-2.7144 9.4721,-7.0691 13.1276,-9.6774 10.5454,-7.5245 18.945,-14.3087 33.3737,-26.9559 l 13.446,-11.7856 1.9018,-14.35 c 3.9187,-29.569 9.3042,-50.6585 17.1677,-67.2291 1.745,-3.6773 4.2413,-9.8234 5.5473,-13.6582 1.3061,-3.8345 4.2578,-10.1253 6.5595,-13.9794 19.9598,-33.4211 26.6052,-43.9419 34.8843,-55.2279 6.8595,-9.3507 45.7363,-52.0675 47.3871,-52.0675 0.526,0 3.0639,-2.1029 5.6396,-4.6729 7.4206,-7.4046 36.0467,-29.787 44.5613,-34.842 40.4915,-24.0395 46.0075,-26.372 64.0536,-27.0865 22.5273,-0.892 27.3341,3.2207 27.3341,23.388 0,11.7649 -2.7484,22.3236 -10.1406,38.9588 -5.6477,12.7092 -17.7415,36.3723 -20.0088,39.1494 -2.2637,2.7731 -9.5036,14.5955 -11.4009,18.6174 -0.795,1.6853 -2.6667,4.4205 -4.1593,6.0781 -1.4926,1.6575 -5.0373,6.7555 -7.8772,11.3286 -5.6669,9.1254 -15.0731,21.4323 -22.8979,29.9592 -2.7698,3.0184 -9.9626,11.2318 -15.9839,18.2519 -22.8635,26.6564 -80.3489,89.6821 -98.6145,108.1189 -11.3356,11.4416 -28.0015,27.724 -30.8807,30.1699 -2.6683,2.267 -2.959,3.0097 -1.7851,4.5619 1.847,2.4423 17.89,10.7372 24.9116,12.8805 8.8886,2.7131 35.1457,2.0989 48.9551,-1.1453 12.0912,-2.8403 29.9146,-9.0766 31.7742,-11.1172 0.6225,-0.6831 1.8212,-1.2421 2.6636,-1.2421 0.8426,0 5.5575,-2.188 10.4776,-4.8624 4.9202,-2.6744 9.6408,-4.8625 10.4905,-4.8625 0.8495,0 3.3785,-1.3675 5.6201,-3.039 2.2414,-1.6715 4.5906,-3.039 5.2205,-3.039 0.6298,0 4.5532,-2.1856 8.7187,-4.8569 4.1655,-2.6712 7.9849,-4.5779 8.4876,-4.237 0.5025,0.341 1.2326,-0.4821 1.622,-1.829 0.3896,-1.3469 1.4225,-2.4489 2.2953,-2.4489 0.8728,0 1.587,-0.4561 1.587,-1.0133 0,-0.5573 1.9658,-3.3501 4.3684,-6.2063 2.4028,-2.856 4.6996,-6.9129 5.1042,-9.0154 1.278,-6.6419 12.6191,-36.3556 16.6079,-43.5131 2.1055,-3.7781 3.8282,-7.4115 3.8282,-8.0744 0,-1.6613 10.0696,-21.2399 11.6958,-22.7406 0.7246,-0.6686 3.6822,-5.2513 6.5725,-10.1838 6.458,-11.0206 16.6388,-24.8338 25.5569,-34.6757 3.6939,-4.0765 7.6145,-8.916 8.7123,-10.7546 1.0978,-1.8387 2.5296,-3.343 3.1819,-3.343 0.6523,0 3.4612,-2.0778 6.2421,-4.6174 10.8285,-9.8888 18.5471,-14.7101 30.7409,-19.2021 7.6135,-2.8047 8.716,-2.9086 17.7707,-1.6738 15.9503,2.1751 23.0146,8.3128 27.5472,23.933 2.8014,9.6548 2.9296,11.1466 2.3606,27.4619 -0.5072,14.5477 -1.1264,19.1286 -3.9489,29.2176 -1.8409,6.5807 -4.0547,12.8715 -4.9193,13.9795 -0.8646,1.1079 -3.6,6.6643 -6.0789,12.3473 -9.5152,21.8156 -27.6106,47.5236 -41.2465,58.5992 -2.1324,1.732 -5.0808,4.4042 -6.5519,5.9382 -4.6493,4.8478 -15.9214,12.8099 -23.9338,16.906 -4.2521,2.1737 -9.1018,5.0154 -10.7772,6.3148 -1.6755,1.2995 -3.0462,1.967 -3.0462,1.4836 0,-0.4833 -0.8724,-0.042 -1.9386,0.9819 -1.0661,1.0237 -9.9141,6.3686 -19.6621,11.8776 -9.748,5.5093 -17.8733,10.7077 -18.056,11.5518 -0.6584,3.042 3.1828,17.9851 6.8813,26.7699 6.6206,15.7245 19.5335,27.3991 32.2419,29.1496 13.9519,1.9217 20.8554,2.5653 25.1947,2.3491 2.5814,-0.1288 8.2183,-0.3797 12.526,-0.5578 4.3079,-0.178 12.2836,-1.3117 17.7236,-2.5195 5.4403,-1.2075 11.8365,-2.5329 14.2139,-2.9448 10.455,-1.8118 27.5019,-11.8297 30.3608,-17.8419 0.772,-1.6236 1.5347,-10.1693 1.8224,-20.4184 0.5139,-18.2996 0.7173,-20.218 2.9381,-27.7079 5.1002,-17.2012 9.6641,-28.7623 13.7756,-34.8962 1.3444,-2.0057 3.352,-5.793 4.4614,-8.416 3.3528,-7.9274 16.4623,-21.1171 25.9526,-26.1115 7.4839,-3.9385 9.1135,-4.345 16.4319,-4.099 6.7013,0.2253 9.1305,0.9051 13.8713,3.8815 7.6234,4.7865 9.9116,7.654 14.1653,17.7512 3.405,8.083 3.5776,9.2036 3.6459,23.6798 0.05,10.5507 -0.3793,16.0636 -1.404,18.0368 -0.8115,1.5629 -1.7047,4.2284 -1.9848,5.9235 -0.28,1.6948 -1.7346,6.3909 -3.2322,10.4356 -1.4976,4.0447 -2.723,7.8739 -2.723,8.5096 0,0.6354 -2.2431,4.6051 -4.9847,8.8214 -2.7417,4.2162 -4.9848,8.0708 -4.9848,8.5659 0,0.4951 -2.617,3.723 -5.8156,7.1732 -3.1985,3.45 -6.9751,8.007 -8.3921,10.1264 -1.4173,2.1194 -3.1996,3.8535 -3.961,3.8535 -0.7613,0 -2.5928,1.4331 -4.0698,3.1844 -3.0085,3.5676 -8.8116,8.0511 -16.4187,12.6852 -9.9266,6.047 -12.2844,7.8526 -12.2913,9.4122 0,0.8676 2.4265,4.2481 5.401,7.5122 6.609,7.2527 11.3147,8.9143 25.6084,9.0424 11.5748,0.1039 17.3177,-0.756 21.9034,-3.2791 15.0869,-8.3007 22.513,-14.0516 28.5023,-22.0727 l 4.1119,-5.5067 -2.4824,-4.5773 c -4.8746,-8.9879 -6.7616,-23.7949 -4.0687,-31.9284 1.932,-5.8355 5.0906,-12.1562 6.0749,-12.1562 0.4477,0 2.0549,-1.2308 3.5717,-2.7351 5.4791,-5.4335 16.1423,-11.5135 22.605,-12.8888 8.0542,-1.7138 9.5079,-1.7373 9.5079,-0.1533 0,0.9849 10.186,15.5938 22.7517,32.6305 0.8066,1.0938 7.0927,9.6471 13.9689,19.0073 6.8763,9.3602 13.0167,17.6158 13.6455,18.3455 0.6288,0.7299 2.3894,3.1267 3.9125,5.326 4.778,6.8995 9.2725,12.6572 13.0091,16.666 1.9839,2.1278 3.6069,4.1248 3.6069,4.4371 0,0.5139 -6.0497,2.2987 -13.2927,3.9218 -1.5231,0.3414 -6.7572,0.6518 -11.6312,0.6899 -7.4981,0.059 -13.2273,-0.7766 -30.9148,-4.5054 -6.0911,-1.2841 -25.3852,-9.9168 -30.2473,-13.5333 l -3.6157,-2.6894 -3.0584,3.1252 c -5.7304,5.8553 -15.2956,13.3659 -21.9225,17.2139 -7.051,4.0943 -20.3152,9.8112 -24.8912,10.7283 -4.4185,0.8857 -21.3868,1.5774 -23.8162,0.971 z m -38.8754,-76.9628 c 1.6324,-3.204 9.3634,-10.9482 14.3237,-14.3481 7.1564,-4.9051 26.9724,-26.7911 32.8163,-36.2444 6.5839,-10.6498 11.9381,-22.8233 12.8441,-29.2018 0.6073,-4.2753 0.301,-5.3213 -2.4382,-8.3273 -2.8788,-3.1591 -3.6458,-3.3904 -9.4582,-2.8529 -13.4036,1.2395 -27.1948,11.5884 -36.9895,27.7568 -11.3211,18.6878 -17.3758,38.8917 -16.9334,56.5053 0.2443,9.7266 0.3709,10.1972 2.5447,9.4581 1.2582,-0.4277 2.7389,-1.6633 3.2905,-2.7457 z m -641.423,-68.8267 c -0.3507,-1.0029 -0.8335,-1.8234 -1.0729,-1.8234 -0.2395,0 -0.4354,0.8205 -0.4354,1.8234 0,1.0029 0.4828,1.8235 1.073,1.8235 0.5901,0 0.786,-0.8206 0.4353,-1.8235 z m 494.5371,-29.7825 c 4.4081,-3.3429 8.4165,-6.0781 8.9075,-6.0781 0.4909,0 2.1011,-1.4222 3.5782,-3.1605 2.9694,-3.4947 23.3273,-19.8863 28.3189,-22.8016 1.7421,-1.0174 5.4107,-4.9752 8.1523,-8.795 2.7417,-3.8196 6.2167,-8.3656 7.7224,-10.1022 5.4845,-6.3256 16.0119,-21.305 21.441,-30.5086 6.433,-10.9054 16.5423,-43.0399 14.3106,-45.489 -0.458,-0.5025 -10.2022,4.7364 -15.1582,8.1499 -4.9196,3.3884 -23.975,21.7668 -32.4721,31.3183 -19.9876,22.4682 -33.5432,43.6375 -47.2405,73.7739 -6.9465,15.2836 -8.4091,19.771 -6.444,19.771 0.478,0 4.4757,-2.7351 8.8839,-6.0781 z m -204.9233,-8.2528 c 19.8056,-19.2825 64.7114,-68.4787 91.598,-100.3497 5.4833,-6.4997 13.9574,-16.4046 18.8314,-22.0108 13.3325,-15.3352 26.9704,-33.5797 32.5039,-43.4825 1.3884,-2.4849 3.7522,-6.0533 5.2525,-7.9298 2.8467,-3.56 8.7284,-13.4729 12.6294,-21.2856 1.252,-2.5071 2.6986,-4.5584 3.2149,-4.5584 0.5163,0 3.8517,-6.4276 7.4123,-14.2834 3.5605,-7.856 7.365,-15.5881 8.4545,-17.1826 2.5517,-3.7344 2.5728,-7.4348 0.043,-7.43 -2.5719,0 -23.1395,11.5703 -38.0845,21.4153 -3.4307,2.26 -6.6755,4.1089 -7.2107,4.1089 -0.5354,0 -1.5472,1.0085 -2.2487,2.2411 -0.7014,1.2324 -4.186,4.3312 -7.7436,6.8859 -3.5576,2.5548 -9.4592,7.4394 -13.1147,10.8548 -7.7502,7.2409 -14.4256,12.7684 -15.7112,13.0093 -0.4976,0.094 -9.1295,9.5294 -19.1822,20.9694 -25.4298,28.939 -42.009,51.1887 -51.9985,69.7837 -2.408,4.4824 -6.2667,11.4319 -8.5749,15.4435 -4.6697,8.116 -13.6316,28.3103 -13.6394,30.7345 0,0.8579 -1.3112,4.3884 -2.9075,7.8455 -3.5928,7.7807 -9.2825,32.059 -9.2825,39.6092 0,5.3359 0.093,5.5001 1.9386,3.4697 1.0662,-1.1723 4.5854,-4.7084 7.8205,-7.858 z m -237.0186,-45.2789 c 1.6195,-1.3617 6.9323,-5.8747 11.8063,-10.0289 4.874,-4.1539 10.2002,-8.4993 11.836,-9.6562 1.6359,-1.157 7.8668,-6.6302 13.8466,-12.1625 5.9799,-5.5326 14.1126,-12.8319 18.0727,-16.2208 3.9601,-3.3887 8.9449,-7.916 11.0773,-10.0605 2.1323,-2.1443 8.0317,-7.5742 13.1097,-12.0661 10.1481,-8.977 28.7499,-26.5037 33.9688,-32.0055 1.8276,-1.9271 10.0426,-10.4803 18.2555,-19.0073 45.2291,-46.9595 74.76,-83.0642 85.2632,-104.2435 2.6525,-5.3487 5.9431,-11.3659 7.3122,-13.3717 4.6393,-6.796 18.2194,-34.7069 18.2194,-37.446 0,-1.058 1.0012,-2.6931 2.2249,-3.6337 1.2237,-0.9406 3.4923,-5.7581 5.0416,-10.7056 1.5491,-4.9475 3.4919,-10.6364 4.3171,-12.6422 4.4507,-10.8164 9.2264,-30.3819 11.0917,-45.4414 l 0.6598,-5.3263 -3.6366,0.7718 c -2.0001,0.4246 -6.6274,2.3597 -10.2828,4.3002 -3.6555,1.9407 -9.2634,4.4116 -12.462,5.4909 -3.1986,1.0794 -7.4356,3.03 -9.4157,4.335 -1.98,1.305 -5.0956,3.2833 -6.9232,4.3965 -11.8006,7.1868 -33.3868,29.9774 -55.5535,58.6531 -8.4097,10.8792 -12.2488,15.9777 -14.7873,19.6381 -3.9734,5.7295 -14.6888,19.9308 -15.5802,20.6486 -0.4151,0.3344 -2.0989,2.7959 -3.7417,5.4703 -1.6428,2.6744 -6.421,9.5122 -10.6183,15.1952 -14.1137,19.1095 -17.1228,23.2135 -20.7743,28.3322 -1.9999,2.8034 -4.7146,6.4647 -6.0328,8.1361 -1.3183,1.6714 -3.9392,5.5007 -5.8245,8.5093 -1.8852,3.0087 -7.1461,10.9405 -11.6908,17.6265 -7.1299,10.489 -13.576,20.6272 -31.8324,50.0646 -7.7845,12.552 -14.5026,24.3445 -23.0714,40.4983 -4.0786,7.6889 -8.3248,15.6207 -9.4362,17.6265 -2.8443,5.1331 -7.2538,15.4588 -11.1613,26.1356 -1.8354,5.0145 -4.244,10.2112 -5.3531,11.5483 -2.587,3.1196 -4.0335,9.1171 -2.1988,9.1171 0.7313,0 2.6547,-1.1142 4.2741,-2.476 z M 900.91422,1565.7292 c 16.34606,-3.2036 33.76425,-8.6439 52.59103,-16.4258 14.2975,-5.9099 36.47537,-16.6211 40.43215,-19.5273 1.52312,-1.1189 6.2587,-4.1128 10.5234,-6.6531 8.9268,-5.3175 32.498,-21.4851 38.2166,-26.2131 2.1324,-1.763 8.1141,-6.3828 13.2928,-10.2664 5.1786,-3.8837 11.4433,-9.0377 13.9216,-11.4533 2.4783,-2.4158 7.7123,-7.3845 11.6311,-11.0417 11.4671,-10.7016 40.6479,-43.4101 51.1781,-57.3653 5.3424,-7.0797 12.496,-17.4537 15.8969,-23.0533 3.401,-5.5995 6.9423,-11.1187 7.8695,-12.265 1.6384,-2.0254 3.7678,-6.1738 14.2183,-27.6983 2.7592,-5.683 5.7313,-11.7003 6.6049,-13.3717 2.1106,-4.0393 16.0379,-36.4012 16.0379,-37.2666 0,-0.3727 1.5647,-4.2759 3.4773,-8.6736 1.9127,-4.3977 4.1558,-10.6301 4.9848,-13.8495 0.8291,-3.2193 2.2983,-8.7253 3.2649,-12.2354 4.2026,-15.2605 8.4329,-42.2425 6.6229,-42.2425 -1.8977,0 -16.4922,3.8308 -18.0589,4.7403 -1.0739,0.6234 -3.8219,1.9999 -6.1066,3.059 -9.2967,4.3094 -12.6762,6.1764 -17.0924,9.442 -2.5468,1.8832 -4.9478,3.4241 -5.3356,3.4241 -0.3878,0 -2.339,1.3676 -4.3359,3.0391 -1.997,1.6714 -4.1821,3.039 -4.8559,3.039 -0.6737,0 -1.6237,0.6837 -2.1108,1.5195 -0.4872,0.8357 -3.6275,3.5531 -6.9784,6.0388 -3.3509,2.4856 -7.3549,5.7676 -8.8979,7.2937 -3.8144,3.7722 -12.4698,11.4185 -20.2643,17.9021 -3.5497,2.9526 -10.5753,9.5091 -15.6124,14.57 -5.0372,5.061 -10.8563,10.7492 -12.9313,12.6404 -14.508,13.2224 -82.3091,86.6104 -88.3232,95.6009 -1.57742,2.3581 -5.3812,7.318 -8.45284,11.0219 -5.38136,6.489 -14.79648,18.596 -27.37714,35.2042 -7.29629,9.6322 -18.26935,25.0332 -26.21736,36.7966 -3.25379,4.816 -7.74009,10.9623 -9.96956,13.659 -2.22946,2.6966 -6.29672,8.3905 -9.03836,12.6531 -2.74162,4.2626 -6.70793,10.2692 -8.81401,13.3477 -20.05032,29.3089 -29.95648,44.6825 -29.95648,46.49 0,1.6361 3.89951,1.269 19.96517,-1.8795 z m -97.06648,-167.2986 c 14.25053,-5.4019 40.36266,-16.9752 58.27593,-25.8284 18.88779,-9.3351 60.567,-39.6362 77.39579,-56.2674 3.42744,-3.3873 13.0018,-11.7016 21.27636,-18.4762 15.42462,-12.6287 31.87739,-29.4282 41.18388,-42.0519 7.9137,-10.7344 7.8513,-10.7999 -9.42696,-9.9004 -18.86743,0.9824 -28.42929,2.4687 -43.4784,6.7582 -31.82501,9.0715 -61.19763,27.7722 -96.41668,61.3862 -19.57715,18.6849 -33.93007,34.0314 -37.76648,40.3811 -2.3132,3.8287 -6.03708,9.1492 -8.27529,11.8236 -3.63446,4.3427 -10.21912,15.5483 -19.10797,32.5177 -2.27851,4.3496 -2.62636,5.7741 -1.41016,5.7741 0.88795,0 8.87544,-2.7525 17.74998,-6.1166 z m 251.56866,-281.3783 c 11.1705,-2.202 32.5092,-7.4377 35.5754,-8.7289 4.6276,-1.9486 -5.7443,-3.0527 -34.6366,-3.6867 -31.9382,-0.7009 -42.1062,0.1611 -55.516,4.7063 -6.48283,2.1974 -7.02723,2.6251 -5.4891,4.313 0.93903,1.0305 4.37011,2.9226 7.6245,4.2049 5.2065,2.0512 8.112,2.2607 24.1946,1.744 10.0527,-0.3231 22.7639,-1.4716 28.2472,-2.5526 z m -70.12424,-27.3268 c 4.46461,-10.9586 12.47371,-20.6247 29.13824,-35.1668 32.2987,-28.1853 66.1449,-49.8471 121.2962,-77.6302 124.5655,-62.75152 235.8785,-99.64469 347.2729,-115.09879 27.8529,-3.86413 55.5982,-5.58304 90.7147,-5.62009 l 35.3284,-0.0372 15.1127,-12.64936 c 60.7578,-50.85456 105.8904,-104.12933 137.9455,-162.83192 10.8397,-19.85063 32.1332,-64.34184 41.0608,-85.79332 9.1346,-21.94916 19.4299,-53.69758 22.8465,-70.45375 2.1893,-10.73745 2.6026,-16.14143 2.6026,-34.03715 0,-20.19458 -0.1631,-21.81898 -3.215,-32.03728 -5.2237,-17.49032 -14.8061,-31.58278 -27.6303,-40.63514 -16.4137,-11.58614 -51.2481,-17.0278 -100.7639,-15.74089 -61.7411,1.60463 -119.0585,17.69373 -191.8475,53.85196 -21.9239,10.89076 -62.5136,34.20647 -79.2025,45.49587 -2.7417,1.8546 -15.9345,10.6299 -29.3173,19.5007 -13.3829,8.87078 -30.0819,20.23034 -37.1089,25.24347 -7.0271,5.01313 -16.2658,11.58663 -20.5305,14.60777 -7.2568,5.14065 -28.4971,20.40136 -58.1557,41.78371 -22.0851,15.92211 -41.0757,28.76257 -98.034,66.28535 -73.2072,48.22707 -170.5746,112.69966 -181.6675,120.29236 -4.87397,3.3361 -19.32983,13.18667 -32.12415,21.89012 -53.24592,36.22122 -101.93386,71.61911 -128.49647,93.4216 -21.91465,17.98746 -30.74882,27.01226 -34.21362,34.95188 -3.12938,7.17096 -4.59666,17.7236 -3.47628,25.00094 0.85762,5.57067 6.34832,15.3775 9.7175,17.35617 1.95274,1.14685 2.82094,0.58235 6.63553,-4.31506 5.49658,-7.05663 9.25984,-9.21802 16.05059,-9.21802 8.61173,0 12.47703,4.30657 13.55219,15.09906 0.53429,5.36326 0.93957,6.09452 3.91909,7.07158 23.18356,7.60212 36.63314,13.87913 52.57387,24.53633 27.78832,18.578 45.94425,37.8477 64.89191,68.8727 11.24504,18.4126 10.73617,17.8017 11.92583,14.3184 0.53841,-1.5766 1.97776,-5.3183 3.19857,-8.315 z m 332.14994,9.0774 c 85.0795,-4.8009 165.8507,-16.5516 239.2212,-34.8024 81.301,-20.2233 116.4114,-31.5565 143.4509,-46.3041 16.2617,-8.8692 25.4402,-15.9008 36.0101,-27.58622 14.9296,-16.50562 19.5387,-28.76418 18.6329,-49.55646 -0.6339,-14.54779 -3.7284,-21.52933 -14.5369,-32.79628 -12.8064,-13.34962 -31.5578,-22.7624 -60.0452,-30.14152 -15.3065,-3.96481 -40.6775,-7.93984 -56.1632,-8.79942 l -12.9619,-0.71948 -14.7313,10.95613 c -19.5146,14.51341 -46.1561,32.1741 -73.9949,49.05123 -38.4184,23.29095 -108.5282,60.02638 -151.9666,79.62602 -6.8921,3.1098 -23.4975,10.7323 -36.901,16.939 -59.4692,27.5384 -124.3641,55.3808 -158.9591,68.1996 l -16.062,5.9517 7.754,0.6971 c 17.5704,1.5794 119.0974,1.0996 151.253,-0.7149 z m -310.7658,-2.4976 c 11.9109,-3.0706 56.3878,-3.7495 82.5889,-1.2607 36.4576,3.4633 36.9081,3.4139 66.7013,-7.3019 38.7112,-13.9232 62.9246,-23.8211 116.5646,-47.6486 127.4622,-56.6204 185.3666,-85.44701 246.4695,-122.70031 31.1421,-18.98678 70.7754,-45.76969 72.6467,-49.09217 0.9741,-1.72981 -53.9543,-1.16835 -74.3083,0.75953 -107.4781,10.18009 -207.4172,39.11525 -334.5339,96.85695 -23.2575,10.56456 -73.2129,36.2241 -90.0643,46.2615 -35.4211,21.0984 -65.0907,43.3674 -83.7043,62.8259 -7.4311,7.7684 -16.20683,20.1605 -16.20683,22.8853 0,1.9976 -0.0935,2.0084 13.84663,-1.5855 z M 838.48777,984.45898 c 0.36881,-1.0548 -0.13748,-2.80452 -1.12509,-3.88832 -2.25745,-2.47719 -6.89595,-0.9483 -9.31577,3.07083 -1.63548,2.71638 -1.60763,2.73512 4.06176,2.73512 4.17708,0 5.88841,-0.51449 6.3791,-1.91763 z m -332.60424,-8.84612 c 0.99859,-1.77316 -4.24331,-6.18038 -8.26171,-6.94608 l -3.8238,-0.72874 4.13771,4.35683 c 4.04702,4.26135 6.77509,5.40024 7.9478,3.31799 z M 753.00645,684.7095 c 6.0925,-1.92756 17.76563,-4.86074 25.94027,-6.5182 8.17465,-1.65746 15.15256,-3.33131 15.50645,-3.71967 2.04069,-2.23943 -10.07317,-6.5854 -18.356,-6.5854 -5.39337,0 -16.34075,3.2395 -22.45777,6.64559 -4.89579,2.72607 -14.83011,10.54365 -21.67979,17.06036 l -3.32318,3.16166 6.64636,-3.26986 c 3.65551,-1.79841 11.63115,-4.84693 17.72366,-6.77448 z"
       id="path2" />
  </g>
</svg>
